<?xml version="1.0" encoding="utf-8"?>
<!-- Generator: Adobe Illustrator 13.0.0, SVG Export Plug-In . SVG Version: 6.00 Build 14948)  -->
<!DOCTYPE svg PUBLIC "-//W3C//DTD SVG 1.1//EN" "http://www.w3.org/Graphics/SVG/1.1/DTD/svg11.dtd">
<svg version="1.1" xmlns="http://www.w3.org/2000/svg" xmlns:xlink="http://www.w3.org/1999/xlink" x="0px" y="0px" width="282px"
	 height="282px" viewBox="-115.5 -117.667 282 282" enable-background="new -115.5 -117.667 282 282" xml:space="preserve">
<g id="Capa_1" display="none">
	<g id="Layer_1">
	</g>
	<g id="Layer_6">
		<path display="inline" stroke="#FFFFFF" d="M103,75c0,1.104-0.896,2-2,2H61c-1.104,0-2-0.896-2-2V54c0-1.104,0.896-2,2-2h40
			c1.104,0,2,0.896,2,2V75z"/>
		<path display="inline" stroke="#000000" d="M101,70.201C101,72,101,72,99,72H63c-2,0-2,0-2-1.799V55.8C61,54,61,54,63,54h36
			c2,0,2,0,2,1.801V70.201z"/>
		<rect x="71" y="79" display="inline" stroke="#000000" width="20" height="1"/>
		<rect x="80" y="77" display="inline" stroke="#000000" width="2" height="1"/>
	</g>
	<path display="inline" fill="#1A171B" d="M76.053,42.917L76.053,42.917l-1.636-23.803c-0.006,0-0.006,0-0.013-0.003
		c-0.049-2.112-0.495-4.126-1.282-5.966v-0.003c-0.951-2.994-4.724-7.071-5.615-7.727c-0.896-0.65-1.03-1.047-1.373-2.884
		c-0.641-3.809-1.647-6.104-2.936-6.125c0-2.325-5.048-2.454-6.562-2.435c-1.532-0.016-6.567,0.11-6.567,2.435
		c-1.294,0.021-2.301,2.316-2.941,6.125c-0.104,0.54-0.178,0.949-0.263,1.282H26.578h-0.513h-0.269H5.271
		C5.183,3.48,5.101,3.071,5.003,2.531C4.368-1.277,3.361-3.572,2.061-3.594c0-2.325-5.035-2.454-6.561-2.435
		c-1.529-0.016-6.564,0.11-6.564,2.435C-12.358-3.572-13.365-1.277-14,2.531c-0.339,1.837-0.476,2.234-1.364,2.884
		c-0.894,0.656-4.678,4.733-5.624,7.727v0.003c-0.785,1.84-1.236,3.854-1.288,5.966c0,0.003-0.006,0.003-0.009,0.003l-1.632,23.803
		l0,0c-0.006,0.195-0.016,0.397-0.016,0.586c0,5.817,4.73,10.528,10.571,10.528c3.763,0,7.071-1.965,8.941-4.919l0.003,0.006
		l5.777-8.521l0,0c1.81,2.601,4.831,4.304,8.258,4.304c4.715,0,8.667-3.229,9.753-7.593h6.695h6.695
		c1.093,4.363,5.048,7.593,9.754,7.593c3.43,0,6.451-1.703,8.258-4.304l0,0l5.78,8.521l0.006-0.006
		c1.867,2.96,5.17,4.919,8.936,4.919c5.842,0,10.57-4.711,10.57-10.528C76.071,43.314,76.059,43.112,76.053,42.917z M-1.534,23.09
		v8.28h-7.333v-8.28h-8.218v-7.3h8.221V7.7h7.333v8.09H6.69v7.3H-1.534z M9.605,41.281c-3.531,0-6.384-2.856-6.384-6.365
		c0-3.521,2.854-6.372,6.384-6.372s6.399,2.851,6.399,6.372C16.004,38.425,13.133,41.281,9.605,41.281z M19.279,20.225
		c0,0.335-0.275,0.604-0.61,0.604h-3.146c-0.342,0-0.613-0.269-0.613-0.604v-1.379c0-0.339,0.275-0.61,0.613-0.61h3.146
		c0.335,0,0.61,0.271,0.61,0.61V20.225z M33.384,20.991V18.08l4.504,1.456L33.384,20.991z M42.515,41.281
		c-3.528,0-6.391-2.856-6.391-6.365c0-3.521,2.862-6.372,6.391-6.372c3.534,0,6.39,2.851,6.39,6.372
		C48.904,38.425,46.049,41.281,42.515,41.281z M49.832,23.09c-2.02,0-3.674-1.636-3.674-3.653c0-2.014,1.654-3.65,3.674-3.65
		c2.033,0,3.669,1.636,3.669,3.65C53.494,21.455,51.865,23.09,49.832,23.09z M58.048,31.297c-2.016,0-3.662-1.636-3.662-3.65
		c0-2.017,1.646-3.65,3.662-3.65c2.025,0,3.668,1.633,3.668,3.65C61.716,29.673,60.074,31.297,58.048,31.297z M58.048,14.945
		c-2.016,0-3.662-1.629-3.662-3.653c0-2.014,1.646-3.647,3.662-3.647c2.025,0,3.668,1.633,3.668,3.647
		C61.716,13.316,60.074,14.945,58.048,14.945z M66.275,23.09c-2.033,0-3.662-1.636-3.662-3.653c0-2.014,1.629-3.65,3.662-3.65
		c2.025,0,3.655,1.636,3.655,3.65C69.931,21.455,68.302,23.09,66.275,23.09z"/>
</g>
<g id="Calque_2">
	<g>
		<circle fill="#FFFFFF" cx="8.464" cy="84.556" r="12.413"/>
		<circle fill="#FFFFFF" cx="95.612" cy="84.556" r="12.413"/>
		<path fill="#FFFFFF" d="M29.28,115.712c0,11.769,21.303,21.32,21.303,21.32s21.321-9.552,21.321-21.32
			S29.28,103.944,29.28,115.712z"/>
		<path fill="#FFFFFF" d="M184.938,139.39l-26.156-4.178c1.571-3.287,2.906-6.699,4.059-10.207l19.94,3.201
			c0.37,0.059,0.729,0.068,1.093,0.068c3.292,0,6.193-2.384,6.73-5.74c0.599-3.712-1.943-7.225-5.661-7.82l-18.849-3.011
			c0.789-4.876,1.213-9.904,1.213-15.088c0-19.325-12.882-62.193-18.148-75.458c-4.042-10.17-8.09-16.8-12.786-24.479
			c-2.181-3.569-4.529-7.401-7.104-11.986c-1.131-2.028-3.227-3.335-5.543-3.473c-2.402-0.175-4.55,0.915-5.926,2.786
			C109.27-4.307,96.037,8.711,90.681,8.711c-2.181,0-6.216-0.496-10.881-1.072c-8.249-1.016-18.528-2.287-29.188-2.287
			c-8.785,0-17.281,1.112-24.779,2.093c-5.205,0.68-9.696,1.267-12.8,1.267c-11.248,0-24.121-17.262-27.746-23.311
			c-1.226-2.042-3.425-3.303-5.81-3.317c-2.489-0.012-4.598,1.206-5.852,3.233C-34.411-1.69-39.716,6.894-45.487,21.912
			c-5.3,13.79-17.72,55.841-17.72,74.704c0,4.897,0.383,9.661,1.089,14.297l-23.791,3.799c-3.718,0.591-6.253,4.098-5.658,7.817
			c0.533,3.355,3.435,5.746,6.728,5.746c0.355,0,0.72-0.021,1.088-0.071l24.747-3.96c1.112,3.513,2.426,6.927,3.962,10.222
			l-30.877,4.925c-3.719,0.596-6.255,4.095-5.661,7.822c0.537,3.355,3.436,5.746,6.728,5.746c0.358,0,0.722-0.03,1.089-0.082
			l35.989-5.758c19.229,27.656,55.061,44.68,99.809,44.68c44.351,0,79.951-16.731,99.308-43.946l31.445,5.02
			c0.363,0.06,0.728,0.082,1.086,0.082c3.298,0,6.193-2.391,6.735-5.741C191.194,143.485,188.655,139.986,184.938,139.39z
			 M52.032,178.144c-32.789,0-65.757-10.613-84.897-33.418l5.991-0.954c3.721-0.596,6.254-4.092,5.659-7.82
			c-0.596-3.721-4.1-6.254-7.813-5.658l-12.218,1.958c-1.679-3.224-3.122-6.612-4.322-10.181l18.694-2.989
			c3.721-0.601,6.254-4.097,5.659-7.821c-0.596-3.715-4.1-6.258-7.813-5.661l-19.672,3.149c-0.55-3.889-0.874-7.925-0.874-12.151
			c0-15.315,10.907-54.446,16.813-69.818c3.976-10.347,7.643-17.271,12.551-25.453c7.002,8.897,19.129,21.007,33.225,21.007
			c3.99,0,8.891-0.641,14.568-1.38c7.082-0.926,15.111-1.977,23.011-1.977c9.823,0,19.633,1.208,27.52,2.18
			c5.33,0.655,9.529,1.177,12.551,1.177c11.034,0,23.826-12.737,31.82-22.229c0.766,1.264,1.5,2.484,2.238,3.674
			c4.538,7.439,8.14,13.313,11.74,22.39c5.874,14.815,17.173,54.741,17.173,70.43c0,4.519-0.364,8.801-0.995,12.925l-24.606-3.939
			c-3.756-0.606-7.228,1.943-7.822,5.664c-0.596,3.722,1.94,7.226,5.658,7.825l23.476,3.752c-1.236,3.554-2.702,6.943-4.417,10.146
			l-16.895-2.703c-3.761-0.602-7.228,1.941-7.822,5.657c-0.596,3.713,1.94,7.225,5.651,7.82l10.429,1.674
			C117.091,167.746,84.477,178.144,52.032,178.144z"/>
	</g>
</g>
</svg>
