<?xml version="1.0" encoding="utf-8"?>
<!-- Generator: Adobe Illustrator 13.0.0, SVG Export Plug-In . SVG Version: 6.00 Build 14948)  -->
<!DOCTYPE svg PUBLIC "-//W3C//DTD SVG 1.1//EN" "http://www.w3.org/Graphics/SVG/1.1/DTD/svg11.dtd">
<svg version="1.1" xmlns="http://www.w3.org/2000/svg" xmlns:xlink="http://www.w3.org/1999/xlink" x="0px" y="0px"
	 width="101.667px" height="101.667px" viewBox="-24.833 -26 101.667 101.667" enable-background="new -24.833 -26 101.667 101.667"
	 xml:space="preserve">
<g id="Capa_1" display="none">
	<g id="Layer_1">
	</g>
	<g id="Layer_6">
		<path display="inline" stroke="#FFFFFF" d="M103,75c0,1.104-0.896,2-2,2H61c-1.104,0-2-0.896-2-2V54c0-1.104,0.896-2,2-2h40
			c1.104,0,2,0.896,2,2V75z"/>
		<path display="inline" stroke="#000000" d="M101,70.201C101,72,101,72,99,72H63c-2,0-2,0-2-1.799V55.8C61,54,61,54,63,54h36
			c2,0,2,0,2,1.801V70.201z"/>
		<rect x="71" y="79" display="inline" stroke="#000000" width="20" height="1"/>
		<rect x="80" y="77" display="inline" stroke="#000000" width="2" height="1"/>
	</g>
	<path display="inline" fill="#1A171B" d="M76.053,42.917L76.053,42.917l-1.636-23.803c-0.006,0-0.006,0-0.014-0.003
		c-0.049-2.112-0.494-4.126-1.281-5.966v-0.003c-0.951-2.994-4.725-7.071-5.615-7.727c-0.896-0.65-1.03-1.047-1.373-2.884
		c-0.641-3.809-1.647-6.104-2.937-6.125c0-2.325-5.048-2.454-6.562-2.435c-1.532-0.016-6.567,0.11-6.567,2.435
		c-1.294,0.021-2.301,2.316-2.941,6.125c-0.104,0.54-0.178,0.949-0.263,1.282H26.578h-0.513h-0.269H5.271
		C5.183,3.48,5.101,3.071,5.003,2.531C4.368-1.277,3.361-3.572,2.061-3.594c0-2.325-5.035-2.454-6.561-2.435
		c-1.529-0.016-6.564,0.11-6.564,2.435C-12.358-3.572-13.365-1.277-14,2.531c-0.339,1.837-0.476,2.234-1.364,2.884
		c-0.894,0.656-4.678,4.733-5.624,7.727v0.003c-0.785,1.84-1.236,3.854-1.288,5.966c0,0.003-0.006,0.003-0.009,0.003l-1.632,23.803
		l0,0c-0.006,0.195-0.016,0.397-0.016,0.586c0,5.817,4.73,10.528,10.571,10.528c3.763,0,7.071-1.965,8.941-4.919l0.003,0.006
		l5.777-8.521l0,0c1.81,2.601,4.831,4.304,8.258,4.304c4.715,0,8.667-3.229,9.753-7.593h6.695h6.695
		c1.093,4.363,5.048,7.593,9.754,7.593c3.43,0,6.451-1.703,8.258-4.304l0,0l5.78,8.521l0.006-0.006
		c1.867,2.96,5.17,4.919,8.936,4.919c5.842,0,10.57-4.711,10.57-10.528C76.071,43.314,76.059,43.112,76.053,42.917z M-1.534,23.09
		v8.28h-7.333v-8.28h-8.218v-7.3h8.221V7.7h7.333v8.09H6.69v7.3H-1.534z M9.605,41.281c-3.531,0-6.384-2.856-6.384-6.365
		c0-3.521,2.854-6.372,6.384-6.372s6.399,2.851,6.399,6.372C16.004,38.425,13.133,41.281,9.605,41.281z M19.279,20.225
		c0,0.335-0.275,0.604-0.61,0.604h-3.146c-0.342,0-0.613-0.269-0.613-0.604v-1.379c0-0.339,0.275-0.61,0.613-0.61h3.146
		c0.335,0,0.61,0.271,0.61,0.61V20.225z M33.384,20.991V18.08l4.504,1.456L33.384,20.991z M42.515,41.281
		c-3.528,0-6.391-2.856-6.391-6.365c0-3.521,2.862-6.372,6.391-6.372c3.534,0,6.39,2.851,6.39,6.372
		C48.904,38.425,46.049,41.281,42.515,41.281z M49.832,23.09c-2.02,0-3.674-1.636-3.674-3.653c0-2.014,1.654-3.65,3.674-3.65
		c2.033,0,3.669,1.636,3.669,3.65C53.494,21.455,51.865,23.09,49.832,23.09z M58.048,31.297c-2.016,0-3.662-1.636-3.662-3.65
		c0-2.017,1.646-3.65,3.662-3.65c2.024,0,3.668,1.633,3.668,3.65C61.716,29.673,60.074,31.297,58.048,31.297z M58.048,14.945
		c-2.016,0-3.662-1.629-3.662-3.653c0-2.014,1.646-3.647,3.662-3.647c2.024,0,3.668,1.633,3.668,3.647
		C61.716,13.316,60.074,14.945,58.048,14.945z M66.275,23.09c-2.033,0-3.662-1.636-3.662-3.653c0-2.014,1.629-3.65,3.662-3.65
		c2.025,0,3.655,1.636,3.655,3.65C69.931,21.455,68.302,23.09,66.275,23.09z"/>
</g>
<g id="Calque_2">
	<g>
		<circle fill="#FFFFFF" cx="12.682" cy="22.634" r="4.113"/>
		<circle fill="#FFFFFF" cx="41.553" cy="22.634" r="4.113"/>
		<path fill="#FFFFFF" d="M19.578,32.955c0,3.899,7.056,7.063,7.056,7.063s7.065-3.164,7.065-7.063
			C33.7,29.058,19.578,29.058,19.578,32.955z"/>
		<path fill="#FFFFFF" d="M71.146,40.8l-8.664-1.384c0.521-1.089,0.962-2.22,1.344-3.382l6.605,1.061
			c0.122,0.02,0.242,0.023,0.362,0.023c1.091,0,2.052-0.79,2.23-1.902c0.197-1.229-0.645-2.394-1.876-2.59l-6.243-0.998
			c0.26-1.615,0.402-3.282,0.402-4.999c0-6.403-4.269-20.604-6.014-24.999c-1.341-3.369-2.681-5.566-4.236-8.11
			c-0.723-1.183-1.5-2.452-2.354-3.971c-0.374-0.672-1.069-1.105-1.837-1.151c-0.794-0.058-1.506,0.303-1.962,0.923
			c-2.827,3.873-7.211,8.186-8.983,8.186c-0.723,0-2.059-0.165-3.605-0.356c-2.734-0.336-6.139-0.757-9.671-0.757
			c-2.91,0-5.724,0.369-8.208,0.693c-1.725,0.225-3.213,0.42-4.241,0.42c-3.726,0-7.991-5.719-9.192-7.723
			c-0.406-0.676-1.134-1.094-1.924-1.099c-0.825-0.004-1.523,0.399-1.939,1.07C-1.522-5.939-3.28-3.096-5.192,1.88
			c-1.756,4.568-5.87,18.5-5.87,24.749c0,1.623,0.127,3.201,0.361,4.737l-7.882,1.259c-1.232,0.195-2.072,1.357-1.875,2.589
			c0.177,1.112,1.138,1.904,2.229,1.904c0.118,0,0.239-0.007,0.361-0.023l8.198-1.312c0.369,1.164,0.804,2.294,1.313,3.386
			L-18.586,40.8c-1.232,0.196-2.072,1.355-1.875,2.591c0.178,1.112,1.138,1.904,2.229,1.904c0.119,0,0.24-0.01,0.361-0.028
			l11.923-1.907c6.37,9.164,18.241,14.802,33.066,14.802c14.692,0,26.487-5.542,32.899-14.559l10.417,1.662
			c0.12,0.021,0.241,0.029,0.36,0.029c1.093,0,2.052-0.793,2.232-1.903C73.219,42.155,72.376,40.996,71.146,40.8z M27.116,53.638
			c-10.863,0-21.786-3.516-28.126-11.072l1.985-0.316c1.233-0.197,2.072-1.355,1.874-2.591c-0.197-1.232-1.358-2.071-2.588-1.874
			l-4.048,0.648c-0.556-1.067-1.035-2.19-1.432-3.372l6.194-0.991c1.233-0.199,2.072-1.357,1.874-2.592
			c-0.197-1.23-1.358-2.072-2.588-1.875l-6.518,1.043c-0.182-1.289-0.29-2.625-0.29-4.026c0-5.074,3.614-18.037,5.571-23.13
			C0.341,0.065,1.557-2.229,3.183-4.94c2.319,2.947,6.335,6.958,11.006,6.958c1.322,0,2.946-0.212,4.827-0.457
			c2.347-0.307,5.007-0.655,7.624-0.655c3.254,0,6.505,0.4,9.117,0.722c1.767,0.217,3.158,0.39,4.16,0.39
			c3.654,0,7.892-4.219,10.54-7.364c0.253,0.419,0.497,0.823,0.741,1.218c1.504,2.465,2.697,4.41,3.891,7.417
			c1.946,4.909,5.689,18.136,5.689,23.333c0,1.497-0.121,2.916-0.33,4.283l-8.152-1.306c-1.244-0.2-2.394,0.645-2.591,1.877
			c-0.197,1.233,0.644,2.395,1.875,2.592l7.778,1.244c-0.41,1.176-0.896,2.3-1.464,3.359l-5.598-0.894
			c-1.245-0.199-2.394,0.642-2.591,1.874c-0.197,1.229,0.644,2.392,1.873,2.59l3.454,0.555
			C48.669,50.194,37.865,53.638,27.116,53.638z"/>
	</g>
</g>
</svg>
