<?xml version="1.0" encoding="utf-8"?>
<!-- Generator: Adobe Illustrator 13.0.0, SVG Export Plug-In . SVG Version: 6.00 Build 14948)  -->
<!DOCTYPE svg PUBLIC "-//W3C//DTD SVG 1.1//EN" "http://www.w3.org/Graphics/SVG/1.1/DTD/svg11.dtd">
<svg version="1.1" xmlns="http://www.w3.org/2000/svg" xmlns:xlink="http://www.w3.org/1999/xlink" x="0px" y="0px" width="100px"
	 height="100px" viewBox="0 0 100 100" enable-background="new 0 0 100 100" xml:space="preserve">
<g id="Layer_1">
	<path fill="#FFFFFF" d="M40.874,89.874 M40.874,10.126 M12.76,57.449 M26.262,75.146c-2.908,2.908-7.625,2.908-10.532,0
		c-2.911-2.91-2.911-7.627-0.003-10.535c2.91-2.909,7.628-2.909,10.535,0C29.172,67.521,29.172,72.236,26.262,75.146z
		 M40.875,85.563c-4.116,0-7.451-3.334-7.451-7.447c0-4.115,3.335-7.451,7.449-7.449c4.114-0.002,7.45,3.334,7.449,7.449
		C48.324,82.229,44.988,85.563,40.875,85.563z M40.874,14.436 M66.021,75.146c-2.91,2.91-7.627,2.91-10.535,0.002
		c-2.91-2.91-2.91-7.627,0-10.535c2.908-2.91,7.625-2.91,10.535,0C68.93,67.521,68.93,72.236,66.021,75.146z M68.988,57.449"/>
	<path fill="#FFFFFF" d="M98.25,88.313c0-0.863-0.699-1.563-1.563-1.563H63.102c-0.863,0-1.562,0.699-1.562,1.563l0,0
		c0,0.861,0.698,1.562,1.562,1.562h33.586C97.551,89.874,98.25,89.175,98.25,88.313L98.25,88.313z"/>
	<g>
		<path fill-rule="evenodd" clip-rule="evenodd" fill="#FFFFFF" d="M-51.601-25.147c69.241,0,138.479,0,207.72,0
			c0,52.921,0,105.839,0,158.76c-69.359,0-138.721,0-208.08,0c0-52.56,0-105.121,0-157.68
			C-51.991-24.579-52.02-25.087-51.601-25.147z M-33.601-3.188c0,31.201,0,62.399,0,93.6c25.441,1.08,53.399-0.359,78.84,0.721
			c0,5.64,0,11.279,0,16.92c4.454-0.227,9.821,0.46,13.68-0.36c0-5.64,0-11.28,0-16.92c24.601,0,49.2,0,73.801,0
			c0-31.68,0-63.36,0-95.04c-55.199,0-110.401,0-165.6,0C-33.333-4.12-33.616-3.803-33.601-3.188z M27.959,109.133
			c-0.838,3.841-0.121,9.238-0.36,13.68c17.399,0,34.8,0,52.2,0c0-4.561,0-9.12,0-13.68
			C62.52,109.133,45.239,109.133,27.959,109.133z"/>
		<path fill-rule="evenodd" clip-rule="evenodd" fill="#FFFFFF" d="M-32.88-4.268c55.199,0,110.401,0,165.6,0
			c0,31.68,0,63.36,0,95.04c-24.601,0-49.2,0-73.801,0c0,5.64,0,11.28,0,16.92c-3.858,0.82-9.226,0.134-13.68,0.36
			c0-5.641,0-11.28,0-16.92c-25.44-1.08-53.399,0.359-78.84-0.721c0-31.2,0-62.399,0-93.6C-33.616-3.803-33.333-4.12-32.88-4.268z"
			/>
		<path fill-rule="evenodd" clip-rule="evenodd" fill="#FFFFFF" d="M79.8,109.133c0,4.56,0,9.119,0,13.68c-17.4,0-34.801,0-52.2,0
			c0.239-4.441-0.479-9.839,0.36-13.68C45.239,109.133,62.52,109.133,79.8,109.133z"/>
	</g>
</g>
<g id="Calque_2">
	<path fill-rule="evenodd" clip-rule="evenodd" d="M81.853,26.772c-1.178,4.944-1.178,14.496,0,19.44
		c1.751-0.049,4.043,0.443,3.96-1.44c-3.857-2.743-0.54-12.66-2.16-17.64C82.785,27.28,82.87,26.475,81.853,26.772z"/>
	<path fill-rule="evenodd" clip-rule="evenodd" d="M-21.107,37.572c0.623,3.313,5.555,2.414,8.64,3.96
		c-2.094,4.868-5.686-0.817-8.64,0c-0.178,7.429,13.549,5.442,11.52-1.08c-0.896-2.878-6.058-1.704-8.64-3.6
		c1.857-4.083,5.596-0.042,8.28,0.36C-8.688,30.142-22.373,30.843-21.107,37.572z"/>
	<path fill-rule="evenodd" clip-rule="evenodd" d="M-5.987,38.292c-0.609,6.742,8.815,11.57,12.24,4.32
		c-2.013-1.262-3.509,1.204-5.4,1.08c-2.277-0.149-4.333-2.402-4.32-4.68c0.031-5.855,6.954-3.57,9.72-3.24
		C3.681,29.005-5.482,32.693-5.987,38.292z"/>
	<path fill-rule="evenodd" clip-rule="evenodd" d="M13.092,46.212c3.155-1.819,0.632-6.216,1.44-8.64
		c1.077-3.229,4.686-2.557,7.56-2.88c0.744-3.871-5.936-2.695-7.2-1.44c-0.865-0.335-0.953-1.447-2.52-1.08
		C12.197,35.86,10.899,43.702,13.092,46.212z"/>
	<path fill-rule="evenodd" clip-rule="evenodd" d="M35.772,32.532c-11.042-4.262-13.109,12.854-3.96,13.68
		c2.159,0.195,4.809,0.186,5.04-2.88c-2.914-0.588-7.144,1.438-7.92-2.52c3.502-0.218,7.89,0.45,10.8-0.36
		C39.797,36.208,38.236,33.483,35.772,32.532z"/>
	<path fill-rule="evenodd" clip-rule="evenodd" d="M53.772,32.532c-11.042-4.262-13.109,12.854-3.96,13.68
		c2.159,0.195,4.809,0.186,5.04-2.88c-2.914-0.588-7.144,1.438-7.92-2.52c3.502-0.218,7.89,0.45,10.8-0.36
		C57.797,36.208,56.236,33.483,53.772,32.532z"/>
	<path fill-rule="evenodd" clip-rule="evenodd" d="M76.452,37.572c-1.063-4.827-6.835-6.826-11.16-4.32
		c0.053-1.012-0.881-1.038-1.8-1.08c-0.668,3-2.317,12.753,1.08,14.04c1.466-4.96-0.298-11.525,5.04-11.52
		c5.3,0.005,3.568,6.586,5.04,11.52C77.502,44.938,76.965,39.898,76.452,37.572z"/>
	<path fill-rule="evenodd" clip-rule="evenodd" d="M90.853,35.052c-4.52,6.824,4.303,14.471,10.439,9.72
		c-0.086,1.21,1.338,1.86,2.16,1.08C107.804,35.422,96.124,27.092,90.853,35.052z"/>
	<path fill-rule="evenodd" clip-rule="evenodd" d="M108.492,34.333c1.379,1.381,5.069,0.45,7.561,0.72
		c-2.383,3.618-5.908,6.093-7.561,10.44c2.439,1.316,8.514,0.799,11.521,0.36c0-0.6,0-1.2,0-1.8c-1.621-1.019-5.594,0.313-7.2-0.72
		c2.187-3.813,6.326-5.674,7.2-10.8C117.364,33.458,108.471,30.372,108.492,34.333z"/>
	<path fill-rule="evenodd" clip-rule="evenodd" d="M83.652,27.132c1.62,4.98-1.697,14.897,2.16,17.64
		c0.083,1.883-2.209,1.391-3.96,1.44c-1.178-4.944-1.178-14.496,0-19.44C82.87,26.475,82.785,27.28,83.652,27.132z"/>
	<path fill-rule="evenodd" clip-rule="evenodd" d="M-9.947,37.212c-2.684-0.401-6.423-4.443-8.28-0.36
		c2.583,1.896,7.745,0.722,8.64,3.6c2.029,6.521-11.698,8.509-11.52,1.08c2.955-0.817,6.546,4.868,8.64,0
		c-3.085-1.546-8.017-0.646-8.64-3.96C-22.373,30.843-8.688,30.142-9.947,37.212z"/>
	<path fill-rule="evenodd" clip-rule="evenodd" d="M6.252,35.772c-2.766-0.33-9.688-2.615-9.72,3.24
		c-0.013,2.278,2.043,4.531,4.32,4.68c1.891,0.124,3.387-2.342,5.4-1.08c-3.425,7.25-12.849,2.422-12.24-4.32
		C-5.482,32.693,3.681,29.005,6.252,35.772z"/>
	<path fill-rule="evenodd" clip-rule="evenodd" d="M12.373,32.172c1.567-0.367,1.655,0.745,2.52,1.08
		c1.264-1.255,7.944-2.431,7.2,1.44c-2.875,0.323-6.483-0.349-7.56,2.88c-0.808,2.424,1.715,6.821-1.44,8.64
		C10.899,43.702,12.197,35.86,12.373,32.172z"/>
	<path fill-rule="evenodd" clip-rule="evenodd" d="M39.732,40.453c-2.91,0.81-7.298,0.142-10.8,0.36
		c0.776,3.958,5.006,1.932,7.92,2.52c-0.231,3.066-2.881,3.075-5.04,2.88c-9.149-0.826-7.082-17.942,3.96-13.68
		C38.236,33.483,39.797,36.208,39.732,40.453z M28.572,38.292c2.76,0,5.52,0,8.28,0C36.53,33.596,29.002,33.918,28.572,38.292z"/>
	<path fill-rule="evenodd" clip-rule="evenodd" d="M57.732,40.453c-2.91,0.81-7.298,0.142-10.8,0.36
		c0.776,3.958,5.006,1.932,7.92,2.52c-0.231,3.066-2.881,3.075-5.04,2.88c-9.149-0.826-7.082-17.942,3.96-13.68
		C56.236,33.483,57.797,36.208,57.732,40.453z M46.572,38.292c2.76,0,5.521,0,8.28,0C54.53,33.596,47.002,33.918,46.572,38.292z"/>
	<path fill-rule="evenodd" clip-rule="evenodd" d="M74.652,46.212c-1.472-4.934,0.26-11.515-5.04-11.52
		c-5.338-0.005-3.574,6.56-5.04,11.52c-3.397-1.287-1.748-11.041-1.08-14.04c0.919,0.042,1.853,0.068,1.8,1.08
		c4.325-2.506,10.098-0.507,11.16,4.32C76.965,39.898,77.502,44.938,74.652,46.212z"/>
	<path fill-rule="evenodd" clip-rule="evenodd" d="M103.452,45.853c-0.822,0.78-2.246,0.13-2.16-1.08
		c-6.137,4.751-14.959-2.896-10.439-9.72C96.124,27.092,107.804,35.422,103.452,45.853z M96.973,43.692
		c5.321-0.005,6.065-9.82-0.721-8.64C90.279,36.091,92.491,43.697,96.973,43.692z"/>
	<path fill-rule="evenodd" clip-rule="evenodd" d="M120.013,32.532c-0.874,5.126-5.014,6.987-7.2,10.8
		c1.606,1.033,5.579-0.299,7.2,0.72c0,0.6,0,1.2,0,1.8c-3.007,0.438-9.081,0.956-11.521-0.36c1.652-4.347,5.178-6.822,7.561-10.44
		c-2.491-0.27-6.182,0.661-7.561-0.72C108.471,30.372,117.364,33.458,120.013,32.532z"/>
	<path fill-rule="evenodd" clip-rule="evenodd" fill="#FFFFFF" d="M36.853,38.292c-2.76,0-5.52,0-8.28,0
		C29.002,33.918,36.53,33.596,36.853,38.292z"/>
	<path fill-rule="evenodd" clip-rule="evenodd" fill="#FFFFFF" d="M54.853,38.292c-2.76,0-5.521,0-8.28,0
		C47.002,33.918,54.53,33.596,54.853,38.292z"/>
	<path fill-rule="evenodd" clip-rule="evenodd" fill="#FFFFFF" d="M96.252,35.052c6.786-1.18,6.042,8.635,0.721,8.64
		C92.491,43.697,90.279,36.091,96.252,35.052z"/>
</g>
</svg>
