<?xml version="1.0" encoding="utf-8"?>
<!-- Generator: Adobe Illustrator 13.0.0, SVG Export Plug-In . SVG Version: 6.00 Build 14948)  -->
<!DOCTYPE svg PUBLIC "-//W3C//DTD SVG 1.1//EN" "http://www.w3.org/Graphics/SVG/1.1/DTD/svg11.dtd">
<svg version="1.1" xmlns="http://www.w3.org/2000/svg" xmlns:xlink="http://www.w3.org/1999/xlink" x="0px" y="0px"
	 width="406.479px" height="155.992px" viewBox="0 0 406.479 155.992" enable-background="new 0 0 406.479 155.992"
	 xml:space="preserve">
<g id="Calque_2" display="none">
	<rect x="-309.315" y="-191.68" display="inline" fill="#001C3F" stroke="#1A171B" width="1488.888" height="479.629"/>
</g>
<g id="Calque_3">
	<g>
		<g>
			<path fill-rule="evenodd" clip-rule="evenodd" fill="#FFFFFF" d="M329.318,117.771c-0.697,3.503-0.116,8.504-0.308,12.601
				c5.313,1.718,20.649-2.896,18.096,5.04c-1.14,3.543-10.66,2.16-16.563,2.16c-12.393,0-23.858,0-36.498,0
				c-5.86,0-15.12,1.577-15.335-3.24c-0.315-7.039,12.823-2.155,18.095-3.601c0.951-2.677-0.045-8.327,0.308-12.6
				c-17.89-0.668-30.556-0.36-48.154-0.36c-4.213,0-11.784,1.438-14.722-1.439c-2.871-2.813-1.841-15.294-1.841-23.04
				c0-17.636,0-33.203,0-50.399c0-7.01-1.333-19.932,0.613-24.121c2.027-4.362,14.871-2.52,22.391-2.52c39.737,0,77.043,0,117.47,0
				c5.36,0,16.153-1.202,18.403,1.08c2.813,2.853,1.534,16.92,1.534,24.119c0,19.212,0,31.399,0,51.121
				c0,6.793,1.329,20.676-1.534,23.76c-2.208,2.38-9.77,1.439-14.722,1.439C360.093,117.771,345.483,117.771,329.318,117.771z
				 M237.611,23.812c0.204,28.439-0.408,57.839,0.307,85.68c49.073,0.6,100.294,0.6,149.369,0
				c-0.203-28.801,0.41-58.561-0.306-86.76c-49.585,0-99.171,0-148.756,0C237.839,22.878,237.597,23.195,237.611,23.812z"/>
			<path fill-rule="evenodd" clip-rule="evenodd" fill="#FFFFFF" d="M141.034,87.171c-11.219,1.959-22.398,9.294-34.2,10.44
				c-10.409,1.011-14.453-5.139-20.16-10.44c-9-8.361-17.485-18.756-27.72-25.561c-2.695-3.352-5.502-6.59-8.308-9.832
				c-2.54-2.934-5.078-5.867-7.532-8.887c-0.782-2.404-5.224-12.362-6.48-15.121c0-0.211,0-4.848,0-5.039
				c2.152-1.879,5.438-3.044,7.92-1.44c3.285,2.122,5.612,13.181,7.92,16.92c4.204,6.81,10.925,10.882,14.04,16.2
				c2.645-0.704,4.225-4.035,7.92-4.68c6.105-1.066,14.871,1.078,23.04,0.719c8.461-0.371,15.675-2.545,22.32-3.239
				c10.707,12.001-16.372,12.621-29.16,12.601c3.315,4.365,8.897,9.581,13.68,13.68c5.624-4.32,9.12-6.631,15.12-11.16
				c2.491-1.881,10.267-10.102,16.2-9.721c3.277,0.211,6.401,3.884,9,6.121c5.744,4.943,9.823,8.516,15.84,13.68
				c2.472,2.121,6.571,4.699,5.76,9c-1.529,8.103-13.658-0.019-15.48-3.6c0.221,3.56,1.492,11.648,2.52,19.439
				c1.109,8.399,5.255,23.59-3.96,22.68c-5.174-0.511-5.401-8.889-6.12-14.399C142.296,98.645,141.723,93.274,141.034,87.171z
				 M115.474,81.771c9.672-3.167,18.616-7.064,29.52-9c-3.041-1.999-5.477-4.604-8.28-6.84
				C129.348,70.685,121.23,76.606,115.474,81.771z"/>
			<path fill-rule="evenodd" clip-rule="evenodd" fill="#FFFFFF" d="M61.474,21.291c9.441-1.272,17.144,4.127,18.36,11.159
				c1.366,7.9-2.58,14.719-7.92,17.281c-6.597,3.164-8.097-1.494-11.88-5.761c-2.279-2.571-4.807-3.838-6.48-6.479
				C48.609,29.682,53.925,24.091,61.474,21.291z"/>
			<path fill-rule="evenodd" clip-rule="evenodd" fill="#FFFFFF" d="M139.594,89.331c2.09,6.2,0.758,23.902,4.32,29.52
				c2.785,4.392,11.445,2.859,12.6-2.16c-0.407-11.232-2.419-20.86-3.6-31.319c3.173-0.66,4.206,1.811,7.2,1.8
				c2.438-0.009,4.277-2.264,6.48-0.72c2.826,1.98,1.44,11.808,1.44,16.56c0,6.636,0,12.525,0,17.64
				c-0.842,1.558-2.576,2.225-4.32,2.881c0.373,4.188,2.094,7.026,1.8,11.88c-1.635,2.913-7.081,4.036-10.44,2.16
				c-2.261-3.058-2.632-10.073-3.24-14.4c-24.6,0-49.2,0-73.8,0c-1.525,3.095-1.048,11.147-3.6,14.4
				c-2.988,1.775-8.443,0.86-10.08-1.801c-1.157-4.432,1.046-8.527,1.44-12.6c-7.262,1.487-8.862-5.314-11.88-10.08
				c-14.239-22.487-28.891-46.207-43.2-68.4c-1.295-6.643,5.813-8.771,10.8-11.879c5.289-3.299,9.118-5.785,12.6-7.92
				c0.306-0.066,0.339,0.14,0.36,0.359c0.465,1.455,4.569,14.693,7.2,19.439c1.745,3.148,5.059,6.527,7.92,9.721
				c2.859,3.19,5.221,7.018,7.92,9.359c3.293,2.857,7.057,5.016,10.08,7.92c6.119,5.879,11.277,11.437,18,17.641
				c5.63,5.196,8.796,11.308,19.44,10.439C117.08,98.788,128.255,91.272,139.594,89.331z"/>
			<path fill-rule="evenodd" clip-rule="evenodd" fill="#FFFFFF" d="M346.71,39.466c0,5.16,0,10.32,0,15.479
				c0.419,1.249,2.396,0.896,1.751,3.24c-0.896,0.567-3.658,0.567-4.554,0c0.213-6.261-0.439-13.412,0.35-19.08
				C345.396,38.897,345.888,39.351,346.71,39.466z"/>
			<path fill-rule="evenodd" clip-rule="evenodd" fill="#FFFFFF" d="M123.394,52.971c0.125-2.524-0.246-4.554-1.8-5.399
				c4.26-1.761,18.458-9.157,15.84,1.08C132.836,50.173,128.598,52.055,123.394,52.971z M134.554,44.69c0,0.24,0,0.48,0,0.721
				c0.22,0.02,0.426,0.054,0.36,0.359c0.24,0,0.48,0,0.72,0c0.02-0.219,0.054-0.426,0.36-0.359c0-0.24,0-0.48,0-0.721
				c-0.22-0.02-0.426-0.053-0.36-0.359c-0.24,0-0.48,0-0.72,0C134.894,44.55,134.86,44.757,134.554,44.69z M131.314,45.411
				c0,0.24,0,0.479,0,0.72c0.22,0.021,0.426,0.054,0.36,0.36c0.24,0,0.48,0,0.72,0c0.021-0.22,0.054-0.427,0.36-0.36
				c0-0.24,0-0.479,0-0.72c-0.219-0.021-0.426-0.055-0.36-0.36c-0.24,0-0.48,0-0.72,0C131.654,45.271,131.62,45.478,131.314,45.411z
				 M128.794,46.131c-0.252,1.247,1.262,1.291,1.8,0.72C130.846,45.604,129.332,45.56,128.794,46.131z M126.274,47.211
				c0,0.239,0,0.479,0,0.72c0.22,0.021,0.426,0.055,0.36,0.36c0.24,0,0.48,0,0.72,0c0.021-0.22,0.054-0.427,0.36-0.36
				c0-0.24,0-0.48,0-0.72c-0.22-0.021-0.426-0.054-0.36-0.36c-0.24,0-0.48,0-0.72,0C126.614,47.07,126.581,47.276,126.274,47.211z
				 M132.034,47.931c0,0.24,0,0.48,0,0.721c0.219,0.02,0.426,0.053,0.36,0.359c0.24,0,0.48,0,0.72,0
				c0.02-0.219,0.054-0.426,0.36-0.359c0-0.24,0-0.48,0-0.721c-0.22-0.02-0.426-0.054-0.36-0.359c-0.24,0-0.48,0-0.72,0
				C132.374,47.79,132.34,47.997,132.034,47.931z M129.514,49.011c0,0.24,0,0.48,0,0.721c0.22,0.02,0.426,0.053,0.36,0.359
				c0.24,0,0.48,0,0.72,0c0.021-0.22,0.054-0.426,0.36-0.359c0-0.24,0-0.48,0-0.721c-0.22-0.021-0.426-0.054-0.36-0.359
				c-0.24,0-0.48,0-0.72,0C129.854,48.87,129.82,49.077,129.514,49.011z M126.994,49.731c0,0.239,0,0.479,0,0.719
				c0.22,0.021,0.426,0.055,0.36,0.361c0.24,0,0.48,0,0.72,0c0.021-0.221,0.054-0.427,0.36-0.361c0-0.239,0-0.479,0-0.719
				c-0.22-0.021-0.426-0.055-0.36-0.36c-0.24,0-0.48,0-0.72,0C127.333,49.591,127.3,49.797,126.994,49.731z"/>
			<path fill-rule="evenodd" clip-rule="evenodd" fill="#FFFFFF" d="M271.045,48.466c-2.858,0.893-2.79-1.646-5.955-1.08
				c-4.222,0.754-4.371,7.756,0.35,8.279c2.68,0.298,2.269-1.931,5.605-1.08c0.91,3.471-3.426,4.303-7.356,3.961
				c-3.988-1.563-6.337-7.349-3.503-11.521C262.785,43.2,271.21,42.854,271.045,48.466z"/>
			<path fill-rule="evenodd" clip-rule="evenodd" fill="#FFFFFF" d="M279.102,45.585c1.672-1.611,7.856-2.571,7.707,1.44
				c-1.462,1.511-3.043-0.091-4.554,0.36c-4.266,1.273-2.606,6.23-3.503,11.16c-0.701,0-1.401,0-2.102,0
				C276.316,55.046,274.874,40.917,279.102,45.585z"/>
			<path fill-rule="evenodd" clip-rule="evenodd" fill="#FFFFFF" d="M303.622,53.146c-2.767,0.756-6.829,0.182-10.158,0.359
				c0.74,3.547,5.113,1.15,7.357,1.801c-0.057,0.418,0.076,0.641,0.35,0.72c-1.895,5.166-10.71,1.772-11.209-2.159
				C287.249,40.937,306.397,42.093,303.622,53.146z M293.114,50.266c2.455-0.237,5.834,0.476,7.707-0.36
				C299.748,46.925,293.625,46.323,293.114,50.266z"/>
			<path fill-rule="evenodd" clip-rule="evenodd" fill="#FFFFFF" d="M321.138,53.146c-2.768,0.756-6.829,0.182-10.158,0.359
				c0.739,3.547,5.111,1.15,7.356,1.801c-0.058,0.418,0.076,0.641,0.35,0.72c-1.895,5.166-10.709,1.772-11.209-2.159
				C304.765,40.937,323.913,42.093,321.138,53.146z M310.63,50.266c2.455-0.237,5.832,0.476,7.706-0.36
				C317.263,46.925,311.141,46.323,310.63,50.266z"/>
			<path fill-rule="evenodd" clip-rule="evenodd" fill="#FFFFFF" d="M255.632,49.546c-2.953,0.998-5.926-4.91-8.407-0.36
				c2.501,1.029,5.86,1.177,8.057,2.521c3.405,8.427-12.322,9.496-10.509,1.799c0.407,0.059,0.624-0.079,0.7-0.359
				c1.856,1.375,5.643,4.313,7.356,0.721c-3.412-1.264-8.408-0.639-8.757-4.32C243.513,43.638,255.894,41.72,255.632,49.546z"/>
			<path fill-rule="evenodd" clip-rule="evenodd" fill="#FFFFFF" d="M337.953,58.546c-2.938-1.57-0.806-5.588-1.402-7.92
				c-0.905-3.547-6.442-4.525-7.706-0.721c-0.891,2.683,1.723,6.938-1.401,8.641c-3.349-1.12-1.402-9.596-1.4-12.961
				c-0.099-0.581,0.331-0.619,0.35-1.08c5.082,0.555,11.521-1.235,12.961,4.681C339.871,51.306,340.042,57.884,337.953,58.546z"/>
			<path fill-rule="evenodd" clip-rule="evenodd" fill="#FFFFFF" d="M365.976,58.186c-2.804-0.089-4.938,0.343-9.107,0.36
				c-2.991-1.606-5.245-3.97-4.553-9.36C356.264,39.577,370.753,46.305,365.976,58.186z M358.971,55.665
				c6.419,0.27,4.886-9.748-1.052-7.92C353.581,49.081,354.67,55.485,358.971,55.665z"/>
			<path fill-rule="evenodd" clip-rule="evenodd" fill="#FFFFFF" d="M382.09,45.226c-1.264,4.58-4.911,6.714-7.007,10.439
				c2.74,0.426,7.674-1.405,7.007,2.521c-3.077,0.594-8.484,0.594-11.561,0c0.984-4.989,4.94-6.923,7.007-10.8
				c-2.264-0.195-5.312,0.418-7.007-0.36C370.09,42.347,379.811,44.769,382.09,45.226z"/>
		</g>
		<path fill-rule="evenodd" clip-rule="evenodd" fill="#FFFFFF" d="M24.894,39.03"/>
		<path fill-rule="evenodd" clip-rule="evenodd" fill="#FFFFFF" d="M40.206,35.218c0,0.375,0.125,1.125,0.125,1.125
			c0.188,0.688,0.313,1.125,0.5,1.313s0.438,0.688,0.438,0.688l0.25,0.5l0.438,0.625l0.688,0.438l-1.938-7.813L40.206,35.218z"/>
		<polygon fill-rule="evenodd" clip-rule="evenodd" fill="#FFFFFF" points="36.634,22.731 36.019,23.718 35.956,24.468 
			35.769,25.155 35.769,25.78 35.956,26.593 36.269,27.093 36.456,27.53 36.634,27.771 42.769,42.593 43.331,43.343 43.831,44.155 
			53.894,55.593 55.144,54.343 		"/>
		<path fill-rule="evenodd" clip-rule="evenodd" fill="#FFFFFF" d="M66.269,50.405l1.25-2.5c0,0-1.375-4-1.625-4.438
			s-6.563-4.25-6.563-4.25L66.269,50.405z"/>
		<path fill-rule="evenodd" clip-rule="evenodd" fill="#FFFFFF" d="M54.394,38.03l1.313,2l0.688,0.938l0.563,1.25l0.813,0.75
			l0.688,0.938l0.938,1l1.188,1.125l0.813,1.063l1.438,1.25l0.688,0.438l1.125,0.75l0.75,0.375l2.5-0.625l-0.5-4.313
			c0,0-3.375-4.875-4.063-5.438S54.394,38.03,54.394,38.03z"/>
		<polygon fill-rule="evenodd" clip-rule="evenodd" fill="#FFFFFF" points="52.956,35.905 53.706,38.03 54.269,38.78 55.144,40.155 
			55.831,40.843 56.331,41.593 56.956,42.218 57.519,42.28 58.644,41.03 56.769,37.468 		"/>
		<path fill-rule="evenodd" clip-rule="evenodd" fill="#FFFFFF" d="M48.56,44.239l-5.446-1.348l4.779,6.848
			c3.333,4,3.167,3.666,3.333,4c0.167,0.333,3.833,4.333,3.833,4.333l1.667,1.333l0.667,1.167l0.833,0.5l0.727,0.538l2.273-0.371
			L48.56,44.239z"/>
		<polygon fill-rule="evenodd" clip-rule="evenodd" fill="#FFFFFF" points="59.227,50.739 55.06,57.405 55.06,58.072 56.06,59.405 
			57.394,60.572 59.227,59.572 		"/>
		<polygon fill-rule="evenodd" clip-rule="evenodd" fill="#FFFFFF" points="119.794,47.211 120.894,48.072 121.227,48.739 
			121.394,49.905 120.227,51.239 118.894,49.905 		"/>
		<path fill-rule="evenodd" clip-rule="evenodd" fill="#FFFFFF" d="M57.394,60.572l2.333,2.333l0.833,0.334l0.667,0.666l0.833,0.834
			l0.833,0.666l0.667,0.334l1.333,0.833l1.333,0.833l1.167,0.834l1.833,0.5l2.833,0.166c0,0,1.167-0.667,1.333-1.5
			s-1.333-4.5-2.167-5.166C70.394,61.572,57.394,60.572,57.394,60.572z"/>
		<path fill-rule="evenodd" clip-rule="evenodd" fill="#FFFFFF" d="M156.727,114.572l-0.213,2.118l-0.621,0.882l-0.833,1.167
			l-0.833,1.333l1,1.167c0,0,5,0.666,5.167,0.166s-0.833-5-0.833-5L156.727,114.572z"/>
		<polygon fill-rule="evenodd" clip-rule="evenodd" fill="#FFFFFF" points="121.594,47.571 121.311,47.155 131.894,43.571 
			124.061,47.321 		"/>
		<polygon fill-rule="evenodd" clip-rule="evenodd" fill="#FFFFFF" points="123.394,52.971 123.311,53.405 137.434,48.651 
			136.561,48.071 		"/>
		<polygon fill-rule="evenodd" clip-rule="evenodd" fill="#FFFFFF" points="134.061,43.239 134.811,43.239 135.644,43.321 
			136.227,43.571 136.894,43.989 137.311,44.655 137.727,45.239 138.061,45.905 138.144,46.655 138.144,47.239 138.061,47.905 
			137.811,48.405 137.434,48.651 137.061,48.739 135.977,48.739 136.311,46.821 136.644,46.071 136.644,45.155 136.311,44.321 
			135.227,44.071 134.227,43.655 		"/>
		<path fill-rule="evenodd" clip-rule="evenodd" fill="#FFFFFF" d="M119.794,47.211l0.517,0.194l0.583,0.667l0.333,0.667l0.5,0.666
			l0.25,0.584l0.083,0.416v0.584l-0.083,0.582l-0.667,0.668l-0.75,0.416c0,0-0.25,0.25-0.5,0.25S119.794,47.211,119.794,47.211z"/>
		<path fill-rule="evenodd" clip-rule="evenodd" fill="#FFFFFF" d="M128.977,46.989"/>
		<g id="Calque_2_1_">
			<g>
				<circle fill="#FFFFFF" cx="263.197" cy="86.341" r="1.339"/>
				<circle fill="#FFFFFF" cx="272.591" cy="86.341" r="1.339"/>
				<path fill="#FFFFFF" d="M265.441,89.698c0,1.27,2.296,2.299,2.296,2.299s2.299-1.029,2.299-2.299
					C270.036,88.431,265.441,88.431,265.441,89.698z"/>
				<path fill="#FFFFFF" d="M282.22,92.251l-2.819-0.45c0.17-0.354,0.314-0.722,0.438-1.1l2.149,0.345
					c0.04,0.006,0.08,0.008,0.118,0.008c0.355,0,0.668-0.258,0.726-0.619c0.064-0.399-0.209-0.779-0.61-0.843l-2.031-0.325
					c0.084-0.524,0.131-1.067,0.131-1.626c0-2.083-1.39-6.704-1.957-8.134c-0.437-1.097-0.873-1.813-1.378-2.639
					c-0.235-0.386-0.488-0.799-0.766-1.293c-0.123-0.219-0.348-0.359-0.599-0.375c-0.258-0.019-0.49,0.1-0.638,0.301
					c-0.92,1.26-2.346,2.664-2.923,2.664c-0.235,0-0.67-0.054-1.173-0.116c-0.889-0.109-1.998-0.246-3.147-0.246
					c-0.947,0-1.862,0.12-2.67,0.226c-0.562,0.073-1.045,0.137-1.38,0.137c-1.212,0-2.6-1.861-2.99-2.513
					c-0.133-0.22-0.369-0.356-0.626-0.358c-0.27,0-0.496,0.131-0.632,0.349c-0.866,1.401-1.438,2.326-2.061,3.944
					c-0.57,1.487-1.91,6.02-1.91,8.054c0,0.527,0.042,1.041,0.118,1.541l-2.565,0.409c-0.401,0.063-0.674,0.441-0.609,0.844
					c0.057,0.36,0.369,0.619,0.724,0.619c0.038,0,0.079-0.003,0.118-0.008l2.667-0.427c0.121,0.378,0.261,0.747,0.427,1.102
					l-3.328,0.53c-0.401,0.063-0.675,0.441-0.61,0.844c0.058,0.361,0.37,0.619,0.725,0.619c0.039,0,0.079-0.003,0.118-0.009
					l3.879-0.621c2.073,2.982,5.935,4.816,10.76,4.816c4.78,0,8.618-1.803,10.704-4.736l3.39,0.54
					c0.039,0.007,0.079,0.01,0.118,0.01c0.355,0,0.667-0.259,0.726-0.619C282.895,92.692,282.62,92.314,282.22,92.251z
					 M267.894,96.429c-3.534,0-7.089-1.145-9.151-3.604l0.646-0.103c0.401-0.064,0.674-0.44,0.61-0.843
					c-0.064-0.4-0.442-0.674-0.842-0.609l-1.317,0.211c-0.181-0.347-0.337-0.712-0.466-1.098l2.015-0.322
					c0.401-0.065,0.674-0.441,0.61-0.844c-0.064-0.399-0.442-0.674-0.842-0.609l-2.121,0.339c-0.059-0.42-0.094-0.854-0.094-1.31
					c0-1.65,1.176-5.869,1.813-7.526c0.429-1.114,0.824-1.861,1.353-2.743c0.754,0.959,2.062,2.265,3.581,2.265
					c0.431,0,0.959-0.069,1.571-0.149c0.764-0.1,1.63-0.213,2.481-0.213c1.059,0,2.117,0.131,2.967,0.235
					c0.575,0.07,1.027,0.127,1.354,0.127c1.188,0,2.567-1.374,3.429-2.396c0.083,0.137,0.162,0.269,0.241,0.396
					c0.49,0.804,0.877,1.437,1.267,2.414c0.633,1.598,1.85,5.901,1.85,7.592c0,0.487-0.039,0.949-0.106,1.394l-2.653-0.424
					c-0.404-0.065-0.779,0.209-0.843,0.61c-0.064,0.4,0.21,0.778,0.611,0.843l2.53,0.404c-0.134,0.384-0.292,0.749-0.476,1.094
					l-1.822-0.29c-0.405-0.065-0.779,0.208-0.843,0.609c-0.064,0.399,0.21,0.777,0.61,0.842l1.124,0.182
					C274.906,95.308,271.391,96.429,267.894,96.429z"/>
			</g>
		</g>
		<g>
			<path fill="#FFFFFF" d="M319.27,77.722l2.046,6.304h6.629l-5.361,3.894l2.047,6.302l-5.36-3.895l-5.36,3.895l2.047-6.302
				l-5.36-3.896h6.626L319.27,77.722 M327.944,84.023L327.944,84.023 M319.27,74.947c-1.202,0-2.269,0.773-2.64,1.917l-1.424,4.385
				h-4.61c-1.202,0-2.269,0.773-2.64,1.918s0.035,2.396,1.008,3.104l3.729,2.71l-1.425,4.383c-0.371,1.146,0.036,2.397,1.01,3.104
				c0.486,0.354,1.058,0.529,1.631,0.529c0.572,0,1.145-0.176,1.632-0.529l3.729-2.71l3.729,2.71
				c0.485,0.354,1.059,0.529,1.632,0.529c0.572,0,1.145-0.176,1.631-0.529c0.973-0.707,1.379-1.959,1.007-3.104l-1.423-4.383
				l3.691-2.682c0.715-0.503,1.183-1.334,1.183-2.275c0-1.532-1.241-2.775-2.774-2.775h-0.002h-4.611l-1.424-4.384
				C321.538,75.721,320.472,74.947,319.27,74.947L319.27,74.947z"/>
		</g>
		<circle fill="#FFFFFF" cx="367.02" cy="78.91" r="4.001"/>
		<path fill="#FFFFFF" d="M366.802,92.646c-0.685,0-1.4-0.555-1.4-1.24v-6.636c0-0.686,0.716-1.24,1.4-1.24
			c0.686,0,1.4,0.555,1.4,1.24v6.636C368.202,92.092,367.487,92.646,366.802,92.646z"/>
		<path fill="#FFFFFF" d="M362.224,97.318c-0.317,0-0.636-0.121-0.877-0.364c-0.484-0.484-0.484-1.269,0-1.754l4.691-4.691
			c0.485-0.484,1.27-0.484,1.755,0s0.485,1.27,0,1.754l-4.692,4.691C362.859,97.197,362.541,97.318,362.224,97.318z"/>
		<path fill="#FFFFFF" d="M371.69,97.318c-0.317,0-0.634-0.121-0.876-0.364l-4.693-4.691c-0.484-0.484-0.484-1.27,0-1.754
			c0.485-0.484,1.271-0.484,1.755,0l4.691,4.691c0.484,0.485,0.484,1.27,0,1.754C372.326,97.197,372.009,97.318,371.69,97.318z"/>
		<path fill="#FFFFFF" d="M372.88,86.012h-11.845c-0.686,0-1.241-0.561-1.241-1.245c0-0.686,0.556-1.245,1.241-1.245h11.845
			c0.685,0,1.24,0.56,1.24,1.245C374.12,85.451,373.564,86.012,372.88,86.012z"/>
	</g>
</g>
<g id="Calque_4" display="none">
	<g display="inline">
		<path fill-rule="evenodd" clip-rule="evenodd" fill="#FFFFFF" d="M555.96,50.062c-1.59,6.809-0.266,16.529-0.701,24.494
			c12.123,3.338,47.117-5.631,41.289,9.797c-2.602,6.887-24.322,4.197-37.789,4.197c-28.279,0-54.438,0-83.277,0
			c-13.371,0-34.498,3.068-34.99-6.297c-0.717-13.684,29.258-4.189,41.289-6.998c2.17-5.203-0.105-16.189,0.699-24.494
			c-40.816-1.297-69.717-0.699-109.867-0.699c-9.613,0-26.887,2.795-33.592-2.799c-6.551-5.467-4.199-29.73-4.199-44.787
			c0-34.282,0-64.543,0-97.972c0-13.625-3.039-38.744,1.4-46.887c4.625-8.481,33.93-4.898,51.086-4.898
			c90.666,0,175.783,0,268.023,0c12.227,0,36.855-2.337,41.988,2.099c6.418,5.546,3.498,32.89,3.5,46.887
			c0,37.345-0.002,61.035,0,99.372c0,13.205,3.031,40.191-3.5,46.188c-5.039,4.625-22.291,2.799-33.59,2.799
			C626.177,50.062,592.839,50.062,555.96,50.062z M346.72-132.586c0.465,55.285-0.934,112.433,0.699,166.552
			c111.965,1.168,228.836,1.166,340.803,0c-0.465-55.984,0.932-113.833-0.699-168.652c-113.133,0-226.271,0-339.404,0
			C347.239-134.399,346.688-133.784,346.72-132.586z"/>
		<path fill-rule="evenodd" clip-rule="evenodd" fill="#FFFFFF" d="M-18.578-115.091c4.082,17.38,21.224,27.761,30.791,41.987
			c5.185-1.729,8.634-7.922,16.096-9.097c5.959-0.938,13.207,1.077,20.294,1.399c23.073,1.048,48.663-2.646,67.181-6.299
			c3.228,2.518,5.004,4.471,4.899,9.098c-0.41,17.873-42.59,13.447-61.583,15.396c6.444,8.486,17.296,18.626,26.593,26.592
			c12.773-9.764,26.106-19.144,39.889-29.392c5.713-4.248,11.597-11.8,20.994-11.196c9.835,0.631,24.242,17.629,31.491,23.793
			c5.189,4.412,10.026,7.956,15.396,12.597c3.556,3.072,11.837,9.663,12.596,14.696c1.002,6.641-2.225,11.066-6.998,11.896
			c-11.099,1.93-16.366-10.621-23.793-13.996c1.698,9.293,3.915,22.666,5.598,36.389c1.9,15.486,10.65,48.576-8.397,45.488
			c-11.02-1.787-10.14-22.908-11.896-36.391c-1.235-9.471-3.022-18.873-3.499-27.291c-23.746,4.359-42.146,17.65-65.782,20.293
			c-17.384,1.945-24.524-5.629-33.59-14.695C39.483-22.04,16.486-45.143-2.482-59.108c-9.982-12.41-20.753-24.033-30.791-36.389
			c-3.51-10.253-7.781-19.744-12.597-28.692c0-3.499,0-6.998,0-10.497c2.927-3.001,11.2-6.67,15.396-2.1
			c5.14,5.357,6.792,14.202,10.497,20.994c2.792-11.203,11.061-16.932,20.994-20.994c36.518-7.951,47.842,42.069,20.294,55.285
			c-10.316,4.948-15.373-0.549-21.694-7.698C-8.16-97.995-14.556-103.761-18.578-115.091z M107.387-19.919
			c18.802-6.156,36.187-13.732,57.384-17.495c-5.911-3.887-10.646-8.948-16.096-13.296
			C134.355-41.468,118.575-29.958,107.387-19.919z"/>
		<path fill-rule="evenodd" clip-rule="evenodd" fill="#FFFFFF" d="M179.466-12.921c11.789,2.373,20.211-0.318,28.692,2.1
			c3.167,19.459,0.539,44.715,1.399,66.48c-2.003,2.43-3.855,5.01-8.397,4.9c0.48,8.617,4.116,14.078,3.499,23.793
			c-3.179,5.662-13.764,7.846-20.294,4.197c-4.396-5.941-5.116-19.578-6.298-27.99c-47.82,0-95.64,0-143.459,0
			c-2.966,6.016-2.039,21.668-6.998,27.99c-6.319,3.725-17.108,1.295-20.294-4.197c-0.48-9.578,2.414-15.781,3.499-23.793
			C-3.303,63.448-6.414,50.228-12.279,40.964C-39.958-2.749-68.44-48.858-96.255-91.999c0-3.032,0-6.064,0-9.097
			c15.38-10.746,30.907-21.345,48.286-30.092c2.842,13.224,7.961,29.356,16.095,41.988c5.803,9.011,14.929,17.37,23.094,26.593
			c7.534,8.51,17.375,14.574,25.893,23.093c7.916,7.916,15.828,16.635,24.493,24.493C50.881-6.608,57.871,3.901,66.098,9.474
			c17.314,11.723,40.754-1.176,56.684-6.299c11.149-3.584,21.217-5.721,32.191-9.098c4.486,10.691,2.814,37.713,6.998,51.785
			c2.882,9.693,16.621,13.564,23.093,3.5C186.837,29.544,180.189,7.214,179.466-12.921z"/>
		<path fill-rule="evenodd" clip-rule="evenodd" fill="#FFFFFF" d="M586.052-101.095c0,10.03,0,20.061,0,30.091
			c0.838,2.428,4.789,1.741,3.498,6.299c-1.787,1.104-7.311,1.104-9.098,0c0.428-12.17-0.879-26.072,0.699-37.09
			C583.425-102.202,584.407-101.319,586.052-101.095z"/>
		<path fill-rule="evenodd" clip-rule="evenodd" fill="#FFFFFF" d="M434.894-83.6c-5.709,1.734-5.574-3.198-11.896-2.1
			c-8.436,1.465-8.732,15.077,0.699,16.096c5.354,0.577,4.533-3.754,11.197-2.1c1.818,6.744-6.844,8.361-14.695,7.697
			c-7.967-3.037-12.658-14.284-6.998-22.393C418.392-93.836,435.222-94.508,434.894-83.6z"/>
		<path fill-rule="evenodd" clip-rule="evenodd" fill="#FFFFFF" d="M450.989-89.199c3.34-3.134,15.693-4.999,15.396,2.8
			c-2.922,2.936-6.082-0.178-9.098,0.699c-8.523,2.477-5.207,12.113-6.998,21.693c-1.4,0-2.801,0-4.199,0
			C445.425-70.809,442.542-98.275,450.989-89.199z"/>
		<path fill-rule="evenodd" clip-rule="evenodd" fill="#FFFFFF" d="M499.976-74.502c-5.529,1.468-13.645,0.352-20.295,0.699
			c1.479,6.893,10.213,2.234,14.695,3.499c-0.113,0.813,0.156,1.245,0.701,1.399c-3.785,10.043-21.396,3.445-22.395-4.199
			C467.267-98.235,505.519-95.99,499.976-74.502z M478.981-80.102c4.904-0.459,11.654,0.925,15.395-0.699
			C492.235-86.596,480.003-87.764,478.981-80.102z"/>
		<path fill-rule="evenodd" clip-rule="evenodd" fill="#FFFFFF" d="M534.966-74.502c-5.529,1.468-13.645,0.352-20.295,0.699
			c1.479,6.893,10.213,2.234,14.695,3.499c-0.113,0.813,0.154,1.245,0.701,1.399c-3.785,10.043-21.396,3.445-22.395-4.199
			C502.257-98.235,540.509-95.99,534.966-74.502z M513.972-80.102c4.904-0.459,11.654,0.925,15.395-0.699
			C527.224-86.596,514.993-87.764,513.972-80.102z"/>
		<path fill-rule="evenodd" clip-rule="evenodd" fill="#FFFFFF" d="M404.103-81.5c-5.898,1.94-11.838-9.545-16.795-0.7
			c4.996,2.001,11.707,2.289,16.096,4.898c6.803,16.382-24.617,18.462-20.994,3.499c0.813,0.113,1.244-0.154,1.398-0.699
			c3.707,2.673,11.273,8.385,14.697,1.398c-6.816-2.455-16.799-1.239-17.496-8.396C379.89-92.987,404.624-96.714,404.103-81.5z"/>
		<path fill-rule="evenodd" clip-rule="evenodd" fill="#FFFFFF" d="M568.556-64.006c-5.867-3.053-1.609-10.861-2.799-15.396
			c-1.811-6.895-12.873-8.796-15.396-1.399c-1.777,5.215,3.441,13.486-2.799,16.795c-6.691-2.177-2.801-18.652-2.799-25.192
			c-0.197-1.13,0.662-1.205,0.699-2.1c10.154,1.075,23.014-2.402,25.893,9.098C572.388-78.079,572.729-65.292,568.556-64.006z"/>
		<path fill-rule="evenodd" clip-rule="evenodd" fill="#FFFFFF" d="M624.54-64.706c-5.6-0.172-9.865,0.668-18.195,0.699
			c-5.975-3.121-10.479-7.715-9.098-18.194C605.138-100.879,634.083-87.801,624.54-64.706z M610.544-69.604
			c12.824,0.521,9.764-18.949-2.1-15.396C599.776-82.404,601.952-69.954,610.544-69.604z"/>
		<path fill-rule="evenodd" clip-rule="evenodd" fill="#FFFFFF" d="M656.731-89.899c-2.525,8.904-9.809,13.052-13.996,20.295
			c5.471,0.826,15.328-2.733,13.996,4.898c-6.145,1.154-16.949,1.154-23.094,0c1.965-9.697,9.869-13.458,13.996-20.994
			c-4.521-0.379-10.609,0.812-13.996-0.699C632.761-95.495,652.181-90.788,656.731-89.899z"/>
		<path fill-rule="evenodd" clip-rule="evenodd" fill="#FFFFFF" d="M122.782-74.502c-0.515-3.17,0.714-10.523-3.499-11.896
			c5.272-3.9,19.552-6.24,24.493-7.699c2.208-0.65,10.22-0.217,7.698,7.699C149.052-78.801,127.175-80.367,122.782-74.502z"/>
	</g>
</g>
</svg>
