<?xml version="1.0" encoding="utf-8"?>
<!-- Generator: Adobe Illustrator 13.0.0, SVG Export Plug-In . SVG Version: 6.00 Build 14948)  -->
<!DOCTYPE svg PUBLIC "-//W3C//DTD SVG 1.1//EN" "http://www.w3.org/Graphics/SVG/1.1/DTD/svg11.dtd">
<svg version="1.1" id="Layer_1" xmlns="http://www.w3.org/2000/svg" xmlns:xlink="http://www.w3.org/1999/xlink" x="0px" y="0px"
	 width="100px" height="100px" viewBox="0 0 100 100" enable-background="new 0 0 100 100" xml:space="preserve">
<path fill="#FFFFFF" d="M13.997,27.842c-2.142-4.906,2.307-15.689,7.817-18.254c5.833-2.547,15.656,0.427,17.724,5.522
	c1.968,4.508-2.172,13.103-7.475,15.418C25.036,33.598,16.155,32.425,13.997,27.842z M76.804,19.833
	c2.872,3.326,1.211,10.366-3.133,14.156c-0.681,0.612-1.394,1.873-2.247,2.086c-4.191,0.884-8.833,2.91-12.676,2.062
	c-2.055-0.365-4.94-5.894-4.353-8.52c0.849-3.843,4.321-7.096,6.71-10.666c0.545-0.553,1.532-0.826,2.063-1.058
	C68.507,14.933,73.069,15.622,76.804,19.833z M17.459,67.217c-4.382-1.718-8.672-3.949-8.654-9.325
	c-0.269-3.514,0.23-8.15,2.328-9.857c2.304-1.952,7.09-1.833,10.628-1.324c4.298,0.806,7.944,3.004,12.897,2.419
	c8.808-1.162,16.738,5.794,14.335,15.841c-0.572,2.303-0.208,5.301,0.569,7.804c1.402,5.385-0.578,9.882-4.205,13.517
	c-4.924,4.991-11.913,2.36-14.889-5.18C26.656,70.936,26.656,70.936,17.459,67.217z M84.269,41.99
	c4.383-0.809,7.646,1.239,9.647,5.1c1.943,3.729,1.7,7.151-1.564,10.156c-4.815,4.156-9.89,7.001-16.306,4.594
	c-2.667-1.044-6.559-3.449-6.955-5.803c-0.247-2.734,2.009-6.244,3.908-9.126c0.845-1.317,3.198-1.714,5.66-2.947
	C80.042,43.519,81.973,42.518,84.269,41.99z M84.251,78.463c2.142,4.906,0.142,9.728-5.292,12.102
	c-6.101,2.663-14.267,0.229-16.218-4.603c-1.952-4.83,0.836-11.101,6.122-13.092C74.888,70.396,81.878,73.029,84.251,78.463z"/>
</svg>
