<?xml version="1.0" encoding="utf-8"?>
<!-- Generator: Adobe Illustrator 13.0.0, SVG Export Plug-In . SVG Version: 6.00 Build 14948)  -->
<!DOCTYPE svg PUBLIC "-//W3C//DTD SVG 1.1//EN" "http://www.w3.org/Graphics/SVG/1.1/DTD/svg11.dtd">
<svg version="1.1" id="Layer_1" xmlns="http://www.w3.org/2000/svg" xmlns:xlink="http://www.w3.org/1999/xlink" x="0px" y="0px"
	 width="100px" height="100px" viewBox="0 0 100 100" enable-background="new 0 0 100 100" xml:space="preserve">
<path fill="#FFFFFF" d="M71.912,6.18c1.805-0.284,4.835,0.651,5.397,1.813c0.647,1.503-0.471,4.073-1.611,5.639
	c-2.438,3.676-5.521,7.072-8.16,10.507c-2.419,3.456-5.482,6.631-7.158,10.485c-1.436,3.654-1.366,7.886-1.938,11.838
	c3.628-0.792,7.538-0.999,10.785-2.491c6.934-2.943,13.202-7.168,20.115-9.893c5.771-2.379,7.902-0.076,7.033,5.964
	C91.012,72.928,63.837,93.425,31.592,88.34c-10.413-1.702-21.227-3.886-25.829-15.97c-3.528-9.1-2.083-17.866,1.952-25.737
	c5.072-9.559,12.056-18.059,16.514-24.447C41.236,12.242,56.371,8.359,71.912,6.18z"/>
</svg>
