<?xml version="1.0" encoding="utf-8"?>
<!-- Generator: Adobe Illustrator 13.0.0, SVG Export Plug-In . SVG Version: 6.00 Build 14948)  -->
<!DOCTYPE svg PUBLIC "-//W3C//DTD SVG 1.1//EN" "http://www.w3.org/Graphics/SVG/1.1/DTD/svg11.dtd">
<svg version="1.1" xmlns="http://www.w3.org/2000/svg" xmlns:xlink="http://www.w3.org/1999/xlink" x="0px" y="0px"
	 width="101.667px" height="101.667px" viewBox="-24.833 -26 101.667 101.667" enable-background="new -24.833 -26 101.667 101.667"
	 xml:space="preserve">
<g id="Capa_1" display="none">
	<g id="Layer_1">
	</g>
	<g id="Layer_6">
		<path display="inline" stroke="#FFFFFF" d="M103,75c0,1.104-0.896,2-2,2H61c-1.104,0-2-0.896-2-2V54c0-1.104,0.896-2,2-2h40
			c1.104,0,2,0.896,2,2V75z"/>
		<path display="inline" stroke="#000000" d="M101,70.201C101,72,101,72,99,72H63c-2,0-2,0-2-1.799V55.8C61,54,61,54,63,54h36
			c2,0,2,0,2,1.801V70.201z"/>
		<rect x="71" y="79" display="inline" stroke="#000000" width="20" height="1"/>
		<rect x="80" y="77" display="inline" stroke="#000000" width="2" height="1"/>
	</g>
	<path display="inline" fill="#81CDE6" d="M72.826,41.696L72.826,41.696L71.296,19.43c-0.006,0-0.006,0-0.013-0.003
		c-0.047-1.976-0.463-3.86-1.199-5.581v-0.003c-0.89-2.801-4.42-6.614-5.253-7.228c-0.838-0.607-0.963-0.979-1.284-2.698
		c-0.599-3.563-1.541-5.71-2.747-5.729c0-2.175-4.722-2.296-6.138-2.278c-1.434-0.015-6.143,0.103-6.143,2.278
		c-1.21,0.02-2.152,2.167-2.751,5.729c-0.097,0.505-0.166,0.888-0.246,1.199H26.545h-0.48h-0.251h-19.2
		c-0.082-0.312-0.159-0.694-0.25-1.199C5.769,0.355,4.827-1.792,3.611-1.813c0-2.175-4.71-2.296-6.138-2.278
		c-1.43-0.015-6.14,0.103-6.14,2.278c-1.21,0.021-2.153,2.167-2.747,5.729c-0.316,1.719-0.445,2.09-1.275,2.698
		c-0.836,0.614-4.376,4.427-5.261,7.228v0.003c-0.735,1.721-1.157,3.605-1.206,5.581c0,0.003-0.005,0.003-0.008,0.003l-1.526,22.266
		l0,0c-0.006,0.182-0.015,0.372-0.015,0.548c0,5.441,4.424,9.847,9.889,9.847c3.52,0,6.614-1.837,8.364-4.601l0.003,0.006
		l5.403-7.971l0,0c1.693,2.433,4.52,4.026,7.726,4.026c4.41,0,8.107-3.021,9.124-7.103h6.262h6.263
		c1.023,4.081,4.722,7.103,9.125,7.103c3.208,0,6.035-1.593,7.725-4.026l0,0l5.407,7.971l0.005-0.006
		c1.747,2.769,4.837,4.601,8.359,4.601c5.464,0,9.888-4.406,9.888-9.847C72.843,42.067,72.832,41.878,72.826,41.696z M0.248,23.148
		v7.746h-6.859v-7.746h-7.688V16.32h7.691V8.752h6.859v7.568h7.69v6.828H0.248z M10.668,40.166c-3.303,0-5.972-2.672-5.972-5.955
		c0-3.293,2.67-5.96,5.972-5.96s5.985,2.667,5.985,5.96C16.653,37.494,13.968,40.166,10.668,40.166z M19.717,20.469
		c0,0.313-0.257,0.565-0.57,0.565h-2.943c-0.32,0-0.573-0.251-0.573-0.565v-1.29c0-0.317,0.257-0.57,0.573-0.57h2.943
		c0.313,0,0.57,0.253,0.57,0.57V20.469z M32.911,21.186v-2.723l4.214,1.362L32.911,21.186z M41.453,40.166
		c-3.3,0-5.979-2.672-5.979-5.955c0-3.293,2.677-5.96,5.979-5.96c3.306,0,5.977,2.667,5.977,5.96
		C47.429,37.494,44.759,40.166,41.453,40.166z M48.297,23.148c-1.889,0-3.436-1.53-3.436-3.417c0-1.884,1.547-3.414,3.436-3.414
		c1.902,0,3.434,1.53,3.434,3.414C51.723,21.62,50.199,23.148,48.297,23.148z M55.984,30.826c-1.886,0-3.426-1.53-3.426-3.414
		c0-1.887,1.54-3.415,3.426-3.415c1.894,0,3.431,1.527,3.431,3.415C59.415,29.307,57.878,30.826,55.984,30.826z M55.984,15.53
		c-1.886,0-3.426-1.524-3.426-3.417c0-1.884,1.54-3.412,3.426-3.412c1.894,0,3.431,1.528,3.431,3.412
		C59.415,14.005,57.878,15.53,55.984,15.53z M63.679,23.148c-1.902,0-3.426-1.53-3.426-3.417c0-1.884,1.523-3.414,3.426-3.414
		c1.895,0,3.419,1.53,3.419,3.414C67.099,21.62,65.576,23.148,63.679,23.148z"/>
</g>
<g id="Calque_3">
	<path fill="#FFFFFF" d="M21.548,15.001c-4.69,0-8.447-3.773-8.447-8.426c0-4.646,3.757-8.419,8.447-8.419
		c4.67,0,8.432,3.773,8.432,8.419C29.984,11.232,26.227,15.001,21.548,15.001z"/>
	<path fill="#FFFFFF" d="M4.536,32.59c-4.69,0-8.447-3.773-8.447-8.426c0-4.646,3.757-8.419,8.447-8.419
		c4.67,0,8.432,3.773,8.432,8.419C12.972,28.821,9.214,32.59,4.536,32.59z"/>
	<path fill="#FFFFFF" d="M39.136,32.207c-4.689,0-8.447-3.773-8.447-8.426c0-4.646,3.758-8.419,8.447-8.419
		c4.67,0,8.432,3.773,8.432,8.419C47.573,28.436,43.815,32.207,39.136,32.207z"/>
	<path fill="#FFFFFF" d="M22.413,47.583c-4.69,0-8.448-3.773-8.448-8.425c0-4.647,3.757-8.42,8.448-8.42
		c4.669,0,8.432,3.773,8.432,8.42C30.849,43.815,27.092,47.583,22.413,47.583z"/>
</g>
<g id="Calque_2" display="none">
</g>
</svg>
