<?xml version="1.0" encoding="utf-8"?>
<!-- Generator: Adobe Illustrator 13.0.0, SVG Export Plug-In . SVG Version: 6.00 Build 14948)  -->
<!DOCTYPE svg PUBLIC "-//W3C//DTD SVG 1.1//EN" "http://www.w3.org/Graphics/SVG/1.1/DTD/svg11.dtd">
<svg version="1.1" id="Layer_1" xmlns="http://www.w3.org/2000/svg" xmlns:xlink="http://www.w3.org/1999/xlink" x="0px" y="0px"
	 width="100px" height="100px" viewBox="0 0 100 100" enable-background="new 0 0 100 100" xml:space="preserve">
<path fill="#FFFFFF" d="M40.874,10.126C18.853,10.126,1,27.978,1,50c0,22.021,17.853,39.874,39.874,39.874
	c22.022,0,39.874-17.853,39.874-39.874C80.748,27.978,62.896,10.126,40.874,10.126z M55.486,24.853
	c2.908-2.908,7.625-2.909,10.535,0c2.908,2.909,2.908,7.627,0,10.535c-2.91,2.91-7.627,2.91-10.535,0
	C52.576,32.479,52.576,27.763,55.486,24.853z M5.313,50.001c-0.001-4.115,3.334-7.451,7.447-7.45
	c4.116-0.001,7.452,3.335,7.449,7.449c0.002,4.114-3.334,7.449-7.449,7.449C8.647,57.45,5.312,54.114,5.313,50.001z M26.262,75.146
	c-2.908,2.908-7.625,2.908-10.532,0c-2.911-2.91-2.911-7.627-0.003-10.535c2.91-2.909,7.628-2.909,10.535,0
	C29.172,67.521,29.172,72.236,26.262,75.146z M26.262,35.388c-2.908,2.91-7.625,2.91-10.535,0
	c-2.909-2.908-2.909-7.625,0.001-10.533c2.909-2.91,7.626-2.91,10.534-0.002C29.172,27.763,29.172,32.479,26.262,35.388z
	 M40.875,85.563c-4.116,0-7.451-3.334-7.451-7.447c0-4.115,3.335-7.451,7.449-7.449c4.114-0.002,7.45,3.334,7.449,7.449
	C48.324,82.229,44.988,85.563,40.875,85.563z M40.874,29.336c-4.114,0-7.45-3.335-7.45-7.45c0-4.115,3.335-7.45,7.45-7.45
	c4.115,0,7.45,3.335,7.45,7.45C48.324,26.001,44.988,29.336,40.874,29.336z M66.021,75.146c-2.91,2.91-7.627,2.91-10.535,0.002
	c-2.91-2.91-2.91-7.627,0-10.535c2.908-2.91,7.625-2.91,10.535,0C68.93,67.521,68.93,72.236,66.021,75.146z M68.988,57.449
	c-4.115,0-7.451-3.335-7.449-7.449c-0.001-4.114,3.334-7.449,7.449-7.45c4.113,0,7.449,3.336,7.449,7.449
	C76.438,54.114,73.102,57.449,68.988,57.449z"/>
<path fill="#FFFFFF" d="M98.25,88.313c0-0.863-0.699-1.563-1.563-1.563H63.102c-0.863,0-1.562,0.699-1.562,1.563l0,0
	c0,0.861,0.698,1.562,1.562,1.562h33.586C97.551,89.874,98.25,89.175,98.25,88.313L98.25,88.313z"/>
</svg>
