<?xml version="1.0" encoding="utf-8"?>
<!-- Generator: Adobe Illustrator 13.0.0, SVG Export Plug-In . SVG Version: 6.00 Build 14948)  -->
<!DOCTYPE svg PUBLIC "-//W3C//DTD SVG 1.1//EN" "http://www.w3.org/Graphics/SVG/1.1/DTD/svg11.dtd">
<svg version="1.1" id="Calque_1" xmlns="http://www.w3.org/2000/svg" xmlns:xlink="http://www.w3.org/1999/xlink" x="0px" y="0px"
	 width="31.334px" height="31.334px" viewBox="35.5 33.166 31.334 31.334" enable-background="new 35.5 33.166 31.334 31.334"
	 xml:space="preserve">
<g id="Captions" display="none">
</g>
<path fill="#FFFFFF" d="M48.562,38.733l1.789-3.148c0.549-0.953,1.45-1.003,2-0.05l1.788,3.198c0.549,0.953,0.101,1.934-1,1.934
	h-3.578C48.462,40.667,48.012,39.686,48.562,38.733z"/>
<path fill="#FFFFFF" d="M43.333,50.473c0,1.101-0.998,1.55-1.951,1l-3.152-1.789c-0.953-0.55-1.008-1.449-0.055-2l3.207-1.787
	c0.953-0.551,1.951-0.101,1.951,1V50.473z"/>
<path fill="#FFFFFF" d="M54.14,58.617l-1.788,3.316c-0.551,0.953-1.451,0.953-2,0l-1.789-3.316c-0.55-0.953-0.1-1.951,1-1.951h3.578
	C54.237,56.666,54.688,57.664,54.14,58.617z"/>
<circle fill="#FFFFFF" cx="51.314" cy="48.685" r="3.368"/>
<path fill="#FFFFFF" d="M64.491,49.684l-3.207,1.789c-0.953,0.551-1.951,0.102-1.951-1v-3.576c0-1.102,0.998-1.551,1.951-1
	l3.152,1.787C65.39,48.233,65.444,49.134,64.491,49.684z"/>
</svg>
