<?xml version="1.0" encoding="utf-8"?>
<!-- Generator: Adobe Illustrator 13.0.0, SVG Export Plug-In . SVG Version: 6.00 Build 14948)  -->
<!DOCTYPE svg PUBLIC "-//W3C//DTD SVG 1.1//EN" "http://www.w3.org/Graphics/SVG/1.1/DTD/svg11.dtd">
<svg version="1.1" id="Layer_1" xmlns="http://www.w3.org/2000/svg" xmlns:xlink="http://www.w3.org/1999/xlink" x="0px" y="0px"
	 width="47.998px" height="48px" viewBox="25.001 17.59 47.998 48" enable-background="new 25.001 17.59 47.998 48"
	 xml:space="preserve">
<g>
	<path fill="#FFFFFF" d="M50.029,62.889c11.419-0.016,20.662-9.286,20.646-20.704c-0.016-11.419-9.287-20.663-20.704-20.647
		c-11.419,0.015-20.664,9.285-20.648,20.704C29.339,53.66,38.609,62.904,50.029,62.889z M57.049,32.251
		c1.863-0.003,3.379,1.507,3.383,3.373c0.003,1.865-1.508,3.379-3.373,3.382c-1.864,0.003-3.381-1.507-3.382-3.373
		C53.675,33.767,55.184,32.253,57.049,32.251z M61.878,46.125c0.007,4.882-5.304,8.849-11.861,8.857
		c-6.558,0.01-11.879-3.941-11.886-8.825L61.878,46.125z M42.924,32.27c1.865-0.003,3.379,1.508,3.382,3.374
		c0.002,1.865-1.508,3.379-3.373,3.382c-1.866,0.002-3.379-1.508-3.382-3.373C39.548,33.786,41.06,32.272,42.924,32.27z"/>
</g>
</svg>
