<?xml version="1.0" encoding="utf-8"?>
<!-- Generator: Adobe Illustrator 13.0.0, SVG Export Plug-In . SVG Version: 6.00 Build 14948)  -->
<!DOCTYPE svg PUBLIC "-//W3C//DTD SVG 1.0//EN" "http://www.w3.org/TR/2001/REC-SVG-20010904/DTD/svg10.dtd">
<svg version="1.0" id="Layer_1" xmlns="http://www.w3.org/2000/svg" xmlns:xlink="http://www.w3.org/1999/xlink" x="0px" y="0px"
	 width="102.521px" height="102.521px" viewBox="-11.768 -2.833 102.521 102.521"
	 enable-background="new -11.768 -2.833 102.521 102.521" xml:space="preserve">
<g>
	<path fill="#FFFFFF" d="M61.664,17.988h8.225c1.082,0,1.973,0.89,1.973,1.974c0,1.107-0.889,1.997-1.973,1.997H61.75
		c-0.521,0-1.04,0.173-1.433,0.564c-0.608,0.627-0.76,1.518-0.412,2.254c0.304,0.652,0.717,1.324,1.173,1.888l4.687-0.021
		c0.348,0.021,0.736,0.109,1.064,0.282l11.02,5.901c0.911,0.564,1.539,1.584,1.539,2.734c0,1.8-1.455,3.231-3.232,3.231h-7.183
		l-9.629,23.628l-6.183,6.183V91.21c0,2.278-1.866,4.145-4.166,4.145c-2.299,0-4.144-1.869-4.144-4.145V66.891H28.166l-3.754,5.706
		l9.222,16.053c1.127,1.997,0.412,4.534-1.584,5.663s-4.535,0.413-5.662-1.583l-9.46-16.229v-7.203l-4.708,6.313v15.298
		c0,2.298-1.866,4.143-4.165,4.143c-2.279,0-4.144-1.845-4.144-4.143L3.888,74.701l3.884-6.163v-7.334l-3.016,4.71
		c-0.065,0.172-0.239,0.283-0.434,0.283c-0.239-0.001-0.455-0.195-0.455-0.456V49.404c0.151-3.211,2.842-5.88,6.073-5.88h40.853
		l6.487-9.979L51.9,28.187c-0.172-0.151-0.282-0.369-0.282-0.608c0-0.478,0.369-0.847,0.824-0.847l3.926,0.022
		c-0.975-2.041-1.538-4.318-1.538-6.727c0.002-8.485,6.901-15.383,15.406-15.383c1.106,0,1.994,0.889,1.994,1.997
		c0,1.084-0.888,2.017-1.994,2.017c-5.813,0-10.633,4.383-11.282,10.023C59.755,18.226,60.668,17.988,61.664,17.988z"/>
</g>
</svg>
