<?xml version="1.0" encoding="utf-8"?>
<!-- Generator: Adobe Illustrator 13.0.0, SVG Export Plug-In . SVG Version: 6.00 Build 14948)  -->
<!DOCTYPE svg PUBLIC "-//W3C//DTD SVG 1.1//EN" "http://www.w3.org/Graphics/SVG/1.1/DTD/svg11.dtd">
<svg version="1.1" id="Calque_1" xmlns="http://www.w3.org/2000/svg" xmlns:xlink="http://www.w3.org/1999/xlink" x="0px" y="0px"
	 width="100px" height="100px" viewBox="0 0 100 100" enable-background="new 0 0 100 100" xml:space="preserve">
<g id="Captions" display="none">
	<rect x="-192" display="inline" width="185" height="99"/>
	<rect y="-36" display="inline" width="100" height="30"/>
	<text transform="matrix(1 0 0 1 66 -19.5)" display="inline" font-family="'ArialMT'" font-size="2.4">http://thenounproject.com</text>
	<text transform="matrix(1 0 0 1 7.1655 -24.5)" display="inline" font-family="'ArialMT'" font-size="6.1578">The Noun Project</text>
	<text transform="matrix(1 0 0 1 8.2856 -19.7002)" display="inline" font-family="'ArialMT'" font-size="4">Icon Template</text>
	<text transform="matrix(1 0 0 1 -178.4995 10.5)" display="inline" font-family="'ArialMT'" font-size="6.1578">Reminders</text>
	<line display="inline" fill="none" stroke="#FFFFFF" stroke-miterlimit="10" x1="8" y1="-14.5" x2="18" y2="-14.5"/>
	<line display="inline" fill="none" stroke="#FFFFFF" stroke-miterlimit="10" x1="-179" y1="16.5" x2="-162" y2="16.5"/>
	<g display="inline">
		<g>
			<g>
				<rect x="-170.802" y="31.318" width="8.721" height="8.642"/>
				<path d="M-164.455,42.312h4.747v-4.703h-4.747V42.312z M-159.266,42.749h-5.63V37.17h5.63V42.749L-159.266,42.749z
					 M-166.221,44.062h8.279v-8.203h-8.279V44.062L-166.221,44.062z M-157.5,44.5h-9.163v-9.079h9.163V44.5L-157.5,44.5z"/>
				<polygon points="-166.149,44.133 -166.292,43.991 -158.013,35.787 -157.871,35.929 				"/>
			</g>
		</g>
	</g>
	<rect x="-179" y="58" display="inline" fill="none" width="35" height="32.5"/>
	<text transform="matrix(1 0 0 1 -178.9995 60.1299)" display="inline" font-family="'ArialMT'" font-size="3">Strokes</text>
	<text transform="matrix(1 0 0 1 -178.9995 65.1299)" display="inline" font-family="'ArialMT'" font-size="2.4">Try to keep strokes at 4px</text>
	<text transform="matrix(1 0 0 1 -178.9995 70.1299)" display="inline" font-family="'ArialMT'" font-size="2.4">Minimum stroke weight is 2px</text>
	<text transform="matrix(1 0 0 1 -178.9995 74.6299)" display="inline" font-family="'ArialMT'" font-size="2.4">For thicker strokes use even </text>
	<text transform="matrix(1 0 0 1 -178.9995 77.6299)" display="inline" font-family="'ArialMT'" font-size="2.4">numbers: 6px, 8px etc.</text>
	<text transform="matrix(1 0 0 1 -178.9995 82.1299)" display="inline" font-family="'ArialMT'" font-size="2.4">Remember to expand strokes </text>
	<text transform="matrix(1 0 0 1 -178.9995 85.1299)" display="inline" font-family="'ArialMT'" font-size="2.4">before saving as an SVG </text>
	<rect x="-136.5" y="58" display="inline" fill="none" width="35" height="32.5"/>
	<text transform="matrix(1 0 0 1 -136.4995 60.1299)" display="inline" font-family="'ArialMT'" font-size="3">Size</text>
	<text transform="matrix(1 0 0 1 -136.4995 65.1299)" display="inline" font-family="'ArialMT'" font-size="2.4">Cannot be wider or taller than </text>
	<text transform="matrix(1 0 0 1 -136.4995 68.6299)" display="inline" font-family="'ArialMT'" font-size="2.4">100px (artboard size)</text>
	<text transform="matrix(1 0 0 1 -136.4995 73.6299)" display="inline" font-family="'ArialMT'" font-size="2.4">Scale your icon to fill as much of </text>
	<text transform="matrix(1 0 0 1 -136.4995 76.6299)" display="inline" font-family="'ArialMT'" font-size="2.4">the artboard as possible</text>
	<rect x="-94" y="58" display="inline" fill="none" width="35" height="32.5"/>
	<text transform="matrix(1 0 0 1 -93.9995 60.1299)" display="inline" font-family="'ArialMT'" font-size="3">Ungroup</text>
	<text transform="matrix(1 0 0 1 -93.9995 65.1299)" display="inline" font-family="'ArialMT'" font-size="2.4">If your design has more than one </text>
	<text transform="matrix(1 0 0 1 -93.9995 68.1299)" display="inline" font-family="'ArialMT'" font-size="2.4">shape, make sure to ungroup</text>
	<rect x="-50" y="58" display="inline" fill="none" width="35" height="32.5"/>
	<text transform="matrix(1 0 0 1 -49.9995 60.1299)" display="inline" font-family="'ArialMT'" font-size="3">Save as</text>
	<text transform="matrix(1 0 0 1 -49.9995 65.1299)" display="inline" font-family="'ArialMT'" font-size="2.4">Save as .SVG and make sure “Use </text>
	<text transform="matrix(1 0 0 1 -49.9995 68.1299)" display="inline" font-family="'ArialMT'" font-size="2.4">Artboards” is checked</text>
	<text transform="matrix(1.0074 0 0 1 -125.542 30.5938)" display="inline" font-family="'ArialMT'" font-size="2.5731">100px</text>
	<text transform="matrix(1.0074 0 0 1 -41 39)" display="inline" font-family="'ArialMT'" font-size="5.1462">.SVG</text>
	<rect x="-126.514" y="34.815" display="inline" width="10.261" height="10.185"/>
	<rect x="-126.477" y="31.766" display="inline" width="0.522" height="2.337"/>
	<rect x="-116.813" y="31.766" display="inline" width="0.523" height="2.337"/>
	<rect x="-127" y="32.337" display="inline" width="11.233" height="0.572"/>
	<g display="inline">
		<rect x="-83.805" y="33.844" width="10.305" height="10.156"/>
		<rect x="-76.809" y="28.707" width="3.308" height="3.261"/>
	</g>
	<rect x="-178.5" y="22.5" display="inline" stroke="#FFFFFF" stroke-miterlimit="10" width="30" height="30"/>
	<rect x="-136.5" y="22.5" display="inline" stroke="#FFFFFF" stroke-miterlimit="10" width="30" height="30"/>
	<rect x="-93.5" y="22.5" display="inline" stroke="#FFFFFF" stroke-miterlimit="10" width="30" height="30"/>
	<rect x="-49.5" y="22.5" display="inline" stroke="#FFFFFF" stroke-miterlimit="10" width="30" height="30"/>
</g>
<g id="Your_Icon">
	<g>
		<g>
			<path fill="#FFFFFF" d="M88.271,55.358V33.927H77.553v-11.48h-11.48V11.733H33.927v10.714h-11.48v11.48H11.733v21.431h10.714
				v10.714H11.733v22.198h10.714V77.553h22.195v10.718h10.716V77.553h22.194v10.718h10.718V66.072H77.553V55.358H88.271z
				 M45.024,54.973H34.31V32.779h10.714V54.973z M67.221,54.973H55.738V32.779h11.482V54.973z"/>
		</g>
	</g>
</g>
</svg>
