<?xml version="1.0" encoding="utf-8"?>
<!-- Generator: Adobe Illustrator 13.0.0, SVG Export Plug-In . SVG Version: 6.00 Build 14948)  -->
<!DOCTYPE svg PUBLIC "-//W3C//DTD SVG 1.1//EN" "http://www.w3.org/Graphics/SVG/1.1/DTD/svg11.dtd">
<svg version="1.1" id="Layer_1" xmlns="http://www.w3.org/2000/svg" xmlns:xlink="http://www.w3.org/1999/xlink" x="0px" y="0px"
	 width="72.333px" height="72.333px" viewBox="13.833 12.833 72.333 72.333" enable-background="new 13.833 12.833 72.333 72.333"
	 xml:space="preserve">
<g>
	<path fill="#FFFFFF" d="M50.333,24.866l5.901,18.164h19.1L59.883,54.255l5.901,18.163L50.333,61.191l-15.45,11.227l5.901-18.163
		L25.333,43.029h19.098L50.333,24.866 M75.334,43.029h0.004 M50.333,16.866c-3.466,0-6.538,2.231-7.608,5.528L38.619,35.03H25.333
		c-3.466,0-6.538,2.23-7.608,5.528c-1.07,3.297,0.102,6.907,2.906,8.944l10.749,7.809l-4.105,12.637
		c-1.071,3.296,0.103,6.906,2.906,8.943c1.402,1.019,3.052,1.527,4.702,1.527c1.65,0,3.3-0.509,4.702-1.527l10.749-7.81l10.749,7.81
		c1.401,1.019,3.052,1.527,4.702,1.527s3.3-0.509,4.701-1.527c2.805-2.037,3.979-5.647,2.906-8.943l-4.104-12.637l10.64-7.729
		c2.061-1.447,3.409-3.842,3.409-6.552c0-4.418-3.579-8-7.998-8h-0.004H62.048l-4.106-12.636
		C56.871,19.097,53.799,16.866,50.333,16.866L50.333,16.866z"/>
</g>
</svg>
