<?xml version="1.0" encoding="utf-8"?>
<!-- Generator: Adobe Illustrator 13.0.0, SVG Export Plug-In . SVG Version: 6.00 Build 14948)  -->
<!DOCTYPE svg PUBLIC "-//W3C//DTD SVG 1.1//EN" "http://www.w3.org/Graphics/SVG/1.1/DTD/svg11.dtd">
<svg version="1.1"
	 id="svg2999" xmlns:dc="http://purl.org/dc/elements/1.1/" xmlns:rdf="http://www.w3.org/1999/02/22-rdf-syntax-ns#" xmlns:cc="http://creativecommons.org/ns#" xmlns:svg="http://www.w3.org/2000/svg"
	 xmlns="http://www.w3.org/2000/svg" xmlns:xlink="http://www.w3.org/1999/xlink" x="0px" y="0px" width="100px" height="100px"
	 viewBox="0 0 100 100" enable-background="new 0 0 100 100" xml:space="preserve">
<g id="Layer_x0020_1" transform="matrix(0.78827976,0,0,0.78827976,-0.07268745,-0.17175938)">
	<path id="path3007" fill="#FFFFFF" d="M63.715,43.624l-5.238-4.596L48.09,50.856c-2.211,2.52-6.08,2.771-8.599,0.557l0,0
		c-2.519-2.208-2.771-6.08-0.558-8.599l14.406-16.41c2.212-2.517,6.083-2.771,8.601-0.557l0,0l27.744,24.379l10.389-11.829
		c2.21-2.52,6.079-2.771,8.6-0.559l0,0c2.52,2.211,2.768,6.083,0.556,8.6L94.825,62.848c-2.215,2.519-6.083,2.769-8.6,0.558l0,0
		l-0.038-0.035l-8.492-7.454L67.38,69.797l6.017,4.472h0.001c2.685,2.686,3.691,6.622,1.425,9.67L60.04,103.827
		c-2.27,3.051-6.624,3.692-9.673,1.426h-0.001c-3.054-2.27-3.695-6.627-1.427-9.675l10.658-14.336l-4.319-3.21l-25.58,34.413
		c-2.268,3.05-6.622,3.692-9.674,1.418l0,0c-3.053-2.265-3.697-6.62-1.425-9.669L63.715,43.624L63.715,43.624z M94.339,15.334
		c5.959,4.43,7.198,12.852,2.769,18.811c-4.433,5.959-12.852,7.2-18.811,2.768c-5.96-4.429-7.203-12.851-2.77-18.811
		C79.955,12.144,88.38,10.904,94.339,15.334z"/>
</g>
</svg>
