<?xml version="1.0" encoding="utf-8"?>
<!-- Generator: Adobe Illustrator 13.0.0, SVG Export Plug-In . SVG Version: 6.00 Build 14948)  -->
<!DOCTYPE svg PUBLIC "-//W3C//DTD SVG 1.1//EN" "http://www.w3.org/Graphics/SVG/1.1/DTD/svg11.dtd">
<svg version="1.1" id="Layer_1" xmlns="http://www.w3.org/2000/svg" xmlns:xlink="http://www.w3.org/1999/xlink" x="0px" y="0px"
	 width="76.5px" height="76.5px" viewBox="12 12 76.5 76.5" enable-background="new 12 12 76.5 76.5" xml:space="preserve">
<circle fill="#FFFFFF" cx="50.199" cy="27.183" r="12.853"/>
<path fill="#FFFFFF" d="M49.5,71.318c-2.201,0-4.5-1.783-4.5-3.984v-21.32c0-2.202,2.299-3.986,4.5-3.986s4.5,1.784,4.5,3.986v21.32
	C54,69.535,51.701,71.318,49.5,71.318z"/>
<path fill="#FFFFFF" d="M34.79,86.33c-1.021,0-2.04-0.389-2.818-1.168c-1.557-1.557-1.557-4.079,0-5.637L47.048,64.45
	c1.557-1.556,4.08-1.556,5.638,0c1.557,1.557,1.557,4.079,0,5.637L37.607,85.162C36.83,85.941,35.81,86.33,34.79,86.33z"/>
<path fill="#FFFFFF" d="M65.21,86.33c-1.021,0-2.04-0.389-2.817-1.168L47.315,70.087c-1.557-1.558-1.557-4.08,0-5.637
	c1.557-1.556,4.08-1.556,5.636,0l15.076,15.075c1.557,1.558,1.557,4.08,0,5.637C67.25,85.941,66.229,86.33,65.21,86.33z"/>
<path fill="#FFFFFF" d="M69.029,50H30.97c-2.201,0-3.985-1.799-3.985-4s1.784-4,3.985-4h38.059c2.201,0,3.986,1.799,3.986,4
	S71.23,50,69.029,50z"/>
</svg>
