<?xml version="1.0" encoding="utf-8"?>
<!-- Generator: Adobe Illustrator 13.0.0, SVG Export Plug-In . SVG Version: 6.00 Build 14948)  -->
<!DOCTYPE svg PUBLIC "-//W3C//DTD SVG 1.1//EN" "http://www.w3.org/Graphics/SVG/1.1/DTD/svg11.dtd">
<svg version="1.1" id="Calque_1" xmlns="http://www.w3.org/2000/svg" xmlns:xlink="http://www.w3.org/1999/xlink" x="0px" y="0px"
	 width="100px" height="100px" viewBox="0 0 100 100" enable-background="new 0 0 100 100" xml:space="preserve">
<g id="Captions" display="none">
</g>
<g id="Your_Icon">
	<path fill="#FFFFFF" d="M62.493,1.811H35.507c-3.181,0-5.783,2.603-5.783,5.782v84.813c0,3.18,2.603,5.783,5.783,5.783h26.986
		c3.18,0,5.781-2.604,5.781-5.783V7.593C68.274,4.414,65.673,1.811,62.493,1.811z M55.49,11.39c1.79,0,3.247,1.454,3.247,3.246
		c0,1.792-1.457,3.246-3.247,3.246c-1.792,0-3.246-1.454-3.246-3.246C52.244,12.844,53.698,11.39,55.49,11.39z M55.49,23.562
		c1.79,0,3.247,1.453,3.247,3.246c0,1.792-1.457,3.246-3.247,3.246c-1.792,0-3.246-1.454-3.246-3.246
		C52.244,25.015,53.698,23.562,55.49,23.562z M46.33,56.811l1.724-3.035c0.53-0.918,1.398-0.966,1.928-0.047l1.724,3.082
		c0.528,0.918,0.098,1.863-0.964,1.863h-3.448C46.233,58.674,45.799,57.729,46.33,56.811z M42.508,11.39
		c1.792,0,3.247,1.454,3.247,3.246c0,1.792-1.455,3.246-3.247,3.246s-3.245-1.454-3.245-3.246
		C39.263,12.844,40.715,11.39,42.508,11.39z M42.508,23.562c1.792,0,3.247,1.453,3.247,3.246c0,1.792-1.455,3.246-3.247,3.246
		s-3.245-1.454-3.245-3.246C39.263,25.015,40.715,23.562,42.508,23.562z M41.29,68.126c0,1.062-0.962,1.494-1.88,0.963l-3.038-1.725
		c-0.918-0.528-0.972-1.396-0.053-1.927l3.091-1.722c0.918-0.531,1.88-0.098,1.88,0.963V68.126z M42.508,42.224
		c-1.792,0-3.245-1.454-3.245-3.246s1.454-3.247,3.245-3.247s3.247,1.454,3.247,3.247S44.299,42.224,42.508,42.224z M51.705,75.976
		l-1.724,3.195c-0.53,0.92-1.398,0.92-1.928,0l-1.724-3.195c-0.53-0.919-0.097-1.882,0.964-1.882h3.448
		C51.8,74.094,52.233,75.057,51.705,75.976z M48.982,69.646c-1.791,0-3.245-1.452-3.245-3.245c0-1.79,1.454-3.245,3.245-3.245
		c1.793,0,3.246,1.455,3.246,3.245C52.23,68.194,50.775,69.646,48.982,69.646z M52.244,38.978c0-1.792,1.454-3.247,3.246-3.247
		c1.79,0,3.247,1.454,3.247,3.247c0,1.792-1.457,3.246-3.247,3.246C53.698,42.224,52.244,40.771,52.244,38.978z M61.682,67.364
		l-3.091,1.725c-0.919,0.531-1.88,0.099-1.88-0.963v-3.447c0-1.062,0.961-1.494,1.88-0.963l3.038,1.722
		C62.548,65.966,62.6,66.836,61.682,67.364z"/>
</g>
</svg>
